<?xml version="1.0" encoding="utf-8" standalone="no"?>
<!DOCTYPE svg PUBLIC "-//W3C//DTD SVG 1.1//EN"
  "http://www.w3.org/Graphics/SVG/1.1/DTD/svg11.dtd">
<svg xmlns:xlink="http://www.w3.org/1999/xlink" width="720pt" height="432pt" viewBox="0 0 720 432" xmlns="http://www.w3.org/2000/svg" version="1.1">
 <metadata>
  <rdf:RDF xmlns:dc="http://purl.org/dc/elements/1.1/" xmlns:cc="http://creativecommons.org/ns#" xmlns:rdf="http://www.w3.org/1999/02/22-rdf-syntax-ns#">
   <cc:Work>
    <dc:type rdf:resource="http://purl.org/dc/dcmitype/StillImage"/>
    <dc:date>2025-05-14T10:26:23.508916</dc:date>
    <dc:format>image/svg+xml</dc:format>
    <dc:creator>
     <cc:Agent>
      <dc:title>Matplotlib v3.9.2, https://matplotlib.org/</dc:title>
     </cc:Agent>
    </dc:creator>
   </cc:Work>
  </rdf:RDF>
 </metadata>
 <defs>
  <style type="text/css">*{stroke-linejoin: round; stroke-linecap: butt}</style>
 </defs>
 <g id="figure_1">
  <g id="patch_1">
   <path d="M 0 432 
L 720 432 
L 720 0 
L 0 0 
z
" style="fill: #ffffff"/>
  </g>
  <g id="axes_1">
   <g id="patch_2">
    <path d="M 39.58149 398.64351 
L 716.99976 398.64351 
L 716.99976 18.118365 
L 39.58149 18.118365 
z
" style="fill: #ffffff"/>
   </g>
   <g id="matplotlib.axis_1">
    <g id="xtick_1">
     <g id="line2d_1">
      <path d="M 39.58149 398.64351 
L 39.58149 18.118365 
" clip-path="url(#p5d661c22c9)" style="fill: none; stroke: #000000; stroke-opacity: 0.8; stroke-width: 0.5; stroke-linecap: square"/>
     </g>
     <g id="line2d_2">
      <defs>
       <path id="m561d3ae889" d="M 0 0 
L 0 3.5 
" style="stroke: #000000; stroke-width: 0.8"/>
      </defs>
      <g>
       <use xlink:href="#m561d3ae889" x="39.58149" y="398.64351" style="stroke: #000000; stroke-width: 0.8"/>
      </g>
     </g>
     <g id="text_1">
      <!-- 0 -->
      <g transform="translate(36.40024 413.241947) scale(0.1 -0.1)">
       <defs>
        <path id="DejaVuSans-30" d="M 2034 4250 
Q 1547 4250 1301 3770 
Q 1056 3291 1056 2328 
Q 1056 1369 1301 889 
Q 1547 409 2034 409 
Q 2525 409 2770 889 
Q 3016 1369 3016 2328 
Q 3016 3291 2770 3770 
Q 2525 4250 2034 4250 
z
M 2034 4750 
Q 2819 4750 3233 4129 
Q 3647 3509 3647 2328 
Q 3647 1150 3233 529 
Q 2819 -91 2034 -91 
Q 1250 -91 836 529 
Q 422 1150 422 2328 
Q 422 3509 836 4129 
Q 1250 4750 2034 4750 
z
" transform="scale(0.015625)"/>
       </defs>
       <use xlink:href="#DejaVuSans-30"/>
      </g>
     </g>
    </g>
    <g id="xtick_2">
     <g id="line2d_3">
      <path d="M 142.220622 398.64351 
L 142.220622 18.118365 
" clip-path="url(#p5d661c22c9)" style="fill: none; stroke: #000000; stroke-opacity: 0.8; stroke-width: 0.5; stroke-linecap: square"/>
     </g>
     <g id="line2d_4">
      <g>
       <use xlink:href="#m561d3ae889" x="142.220622" y="398.64351" style="stroke: #000000; stroke-width: 0.8"/>
      </g>
     </g>
     <g id="text_2">
      <!-- 10 -->
      <g transform="translate(135.858122 413.241947) scale(0.1 -0.1)">
       <defs>
        <path id="DejaVuSans-31" d="M 794 531 
L 1825 531 
L 1825 4091 
L 703 3866 
L 703 4441 
L 1819 4666 
L 2450 4666 
L 2450 531 
L 3481 531 
L 3481 0 
L 794 0 
L 794 531 
z
" transform="scale(0.015625)"/>
       </defs>
       <use xlink:href="#DejaVuSans-31"/>
       <use xlink:href="#DejaVuSans-30" x="63.623047"/>
      </g>
     </g>
    </g>
    <g id="xtick_3">
     <g id="line2d_5">
      <path d="M 244.859754 398.64351 
L 244.859754 18.118365 
" clip-path="url(#p5d661c22c9)" style="fill: none; stroke: #000000; stroke-opacity: 0.8; stroke-width: 0.5; stroke-linecap: square"/>
     </g>
     <g id="line2d_6">
      <g>
       <use xlink:href="#m561d3ae889" x="244.859754" y="398.64351" style="stroke: #000000; stroke-width: 0.8"/>
      </g>
     </g>
     <g id="text_3">
      <!-- 20 -->
      <g transform="translate(238.497254 413.241947) scale(0.1 -0.1)">
       <defs>
        <path id="DejaVuSans-32" d="M 1228 531 
L 3431 531 
L 3431 0 
L 469 0 
L 469 531 
Q 828 903 1448 1529 
Q 2069 2156 2228 2338 
Q 2531 2678 2651 2914 
Q 2772 3150 2772 3378 
Q 2772 3750 2511 3984 
Q 2250 4219 1831 4219 
Q 1534 4219 1204 4116 
Q 875 4013 500 3803 
L 500 4441 
Q 881 4594 1212 4672 
Q 1544 4750 1819 4750 
Q 2544 4750 2975 4387 
Q 3406 4025 3406 3419 
Q 3406 3131 3298 2873 
Q 3191 2616 2906 2266 
Q 2828 2175 2409 1742 
Q 1991 1309 1228 531 
z
" transform="scale(0.015625)"/>
       </defs>
       <use xlink:href="#DejaVuSans-32"/>
       <use xlink:href="#DejaVuSans-30" x="63.623047"/>
      </g>
     </g>
    </g>
    <g id="xtick_4">
     <g id="line2d_7">
      <path d="M 347.498885 398.64351 
L 347.498885 18.118365 
" clip-path="url(#p5d661c22c9)" style="fill: none; stroke: #000000; stroke-opacity: 0.8; stroke-width: 0.5; stroke-linecap: square"/>
     </g>
     <g id="line2d_8">
      <g>
       <use xlink:href="#m561d3ae889" x="347.498885" y="398.64351" style="stroke: #000000; stroke-width: 0.8"/>
      </g>
     </g>
     <g id="text_4">
      <!-- 30 -->
      <g transform="translate(341.136385 413.241947) scale(0.1 -0.1)">
       <defs>
        <path id="DejaVuSans-33" d="M 2597 2516 
Q 3050 2419 3304 2112 
Q 3559 1806 3559 1356 
Q 3559 666 3084 287 
Q 2609 -91 1734 -91 
Q 1441 -91 1130 -33 
Q 819 25 488 141 
L 488 750 
Q 750 597 1062 519 
Q 1375 441 1716 441 
Q 2309 441 2620 675 
Q 2931 909 2931 1356 
Q 2931 1769 2642 2001 
Q 2353 2234 1838 2234 
L 1294 2234 
L 1294 2753 
L 1863 2753 
Q 2328 2753 2575 2939 
Q 2822 3125 2822 3475 
Q 2822 3834 2567 4026 
Q 2313 4219 1838 4219 
Q 1578 4219 1281 4162 
Q 984 4106 628 3988 
L 628 4550 
Q 988 4650 1302 4700 
Q 1616 4750 1894 4750 
Q 2613 4750 3031 4423 
Q 3450 4097 3450 3541 
Q 3450 3153 3228 2886 
Q 3006 2619 2597 2516 
z
" transform="scale(0.015625)"/>
       </defs>
       <use xlink:href="#DejaVuSans-33"/>
       <use xlink:href="#DejaVuSans-30" x="63.623047"/>
      </g>
     </g>
    </g>
    <g id="xtick_5">
     <g id="line2d_9">
      <path d="M 450.138017 398.64351 
L 450.138017 18.118365 
" clip-path="url(#p5d661c22c9)" style="fill: none; stroke: #000000; stroke-opacity: 0.8; stroke-width: 0.5; stroke-linecap: square"/>
     </g>
     <g id="line2d_10">
      <g>
       <use xlink:href="#m561d3ae889" x="450.138017" y="398.64351" style="stroke: #000000; stroke-width: 0.8"/>
      </g>
     </g>
     <g id="text_5">
      <!-- 40 -->
      <g transform="translate(443.775517 413.241947) scale(0.1 -0.1)">
       <defs>
        <path id="DejaVuSans-34" d="M 2419 4116 
L 825 1625 
L 2419 1625 
L 2419 4116 
z
M 2253 4666 
L 3047 4666 
L 3047 1625 
L 3713 1625 
L 3713 1100 
L 3047 1100 
L 3047 0 
L 2419 0 
L 2419 1100 
L 313 1100 
L 313 1709 
L 2253 4666 
z
" transform="scale(0.015625)"/>
       </defs>
       <use xlink:href="#DejaVuSans-34"/>
       <use xlink:href="#DejaVuSans-30" x="63.623047"/>
      </g>
     </g>
    </g>
    <g id="xtick_6">
     <g id="line2d_11">
      <path d="M 552.777149 398.64351 
L 552.777149 18.118365 
" clip-path="url(#p5d661c22c9)" style="fill: none; stroke: #000000; stroke-opacity: 0.8; stroke-width: 0.5; stroke-linecap: square"/>
     </g>
     <g id="line2d_12">
      <g>
       <use xlink:href="#m561d3ae889" x="552.777149" y="398.64351" style="stroke: #000000; stroke-width: 0.8"/>
      </g>
     </g>
     <g id="text_6">
      <!-- 50 -->
      <g transform="translate(546.414649 413.241947) scale(0.1 -0.1)">
       <defs>
        <path id="DejaVuSans-35" d="M 691 4666 
L 3169 4666 
L 3169 4134 
L 1269 4134 
L 1269 2991 
Q 1406 3038 1543 3061 
Q 1681 3084 1819 3084 
Q 2600 3084 3056 2656 
Q 3513 2228 3513 1497 
Q 3513 744 3044 326 
Q 2575 -91 1722 -91 
Q 1428 -91 1123 -41 
Q 819 9 494 109 
L 494 744 
Q 775 591 1075 516 
Q 1375 441 1709 441 
Q 2250 441 2565 725 
Q 2881 1009 2881 1497 
Q 2881 1984 2565 2268 
Q 2250 2553 1709 2553 
Q 1456 2553 1204 2497 
Q 953 2441 691 2322 
L 691 4666 
z
" transform="scale(0.015625)"/>
       </defs>
       <use xlink:href="#DejaVuSans-35"/>
       <use xlink:href="#DejaVuSans-30" x="63.623047"/>
      </g>
     </g>
    </g>
    <g id="xtick_7">
     <g id="line2d_13">
      <path d="M 655.416281 398.64351 
L 655.416281 18.118365 
" clip-path="url(#p5d661c22c9)" style="fill: none; stroke: #000000; stroke-opacity: 0.8; stroke-width: 0.5; stroke-linecap: square"/>
     </g>
     <g id="line2d_14">
      <g>
       <use xlink:href="#m561d3ae889" x="655.416281" y="398.64351" style="stroke: #000000; stroke-width: 0.8"/>
      </g>
     </g>
     <g id="text_7">
      <!-- 60 -->
      <g transform="translate(649.053781 413.241947) scale(0.1 -0.1)">
       <defs>
        <path id="DejaVuSans-36" d="M 2113 2584 
Q 1688 2584 1439 2293 
Q 1191 2003 1191 1497 
Q 1191 994 1439 701 
Q 1688 409 2113 409 
Q 2538 409 2786 701 
Q 3034 994 3034 1497 
Q 3034 2003 2786 2293 
Q 2538 2584 2113 2584 
z
M 3366 4563 
L 3366 3988 
Q 3128 4100 2886 4159 
Q 2644 4219 2406 4219 
Q 1781 4219 1451 3797 
Q 1122 3375 1075 2522 
Q 1259 2794 1537 2939 
Q 1816 3084 2150 3084 
Q 2853 3084 3261 2657 
Q 3669 2231 3669 1497 
Q 3669 778 3244 343 
Q 2819 -91 2113 -91 
Q 1303 -91 875 529 
Q 447 1150 447 2328 
Q 447 3434 972 4092 
Q 1497 4750 2381 4750 
Q 2619 4750 2861 4703 
Q 3103 4656 3366 4563 
z
" transform="scale(0.015625)"/>
       </defs>
       <use xlink:href="#DejaVuSans-36"/>
       <use xlink:href="#DejaVuSans-30" x="63.623047"/>
      </g>
     </g>
    </g>
    <g id="xtick_8">
     <g id="line2d_15">
      <path d="M 60.109316 398.64351 
L 60.109316 18.118365 
" clip-path="url(#p5d661c22c9)" style="fill: none; stroke-dasharray: 0.8,1.32; stroke-dashoffset: 0; stroke: #808080; stroke-opacity: 0.7; stroke-width: 0.8"/>
     </g>
     <g id="line2d_16">
      <defs>
       <path id="md70505b3a4" d="M 0 0 
L 0 2 
" style="stroke: #000000; stroke-width: 0.6"/>
      </defs>
      <g>
       <use xlink:href="#md70505b3a4" x="60.109316" y="398.64351" style="stroke: #000000; stroke-width: 0.6"/>
      </g>
     </g>
    </g>
    <g id="xtick_9">
     <g id="line2d_17">
      <path d="M 80.637143 398.64351 
L 80.637143 18.118365 
" clip-path="url(#p5d661c22c9)" style="fill: none; stroke-dasharray: 0.8,1.32; stroke-dashoffset: 0; stroke: #808080; stroke-opacity: 0.7; stroke-width: 0.8"/>
     </g>
     <g id="line2d_18">
      <g>
       <use xlink:href="#md70505b3a4" x="80.637143" y="398.64351" style="stroke: #000000; stroke-width: 0.6"/>
      </g>
     </g>
    </g>
    <g id="xtick_10">
     <g id="line2d_19">
      <path d="M 101.164969 398.64351 
L 101.164969 18.118365 
" clip-path="url(#p5d661c22c9)" style="fill: none; stroke-dasharray: 0.8,1.32; stroke-dashoffset: 0; stroke: #808080; stroke-opacity: 0.7; stroke-width: 0.8"/>
     </g>
     <g id="line2d_20">
      <g>
       <use xlink:href="#md70505b3a4" x="101.164969" y="398.64351" style="stroke: #000000; stroke-width: 0.6"/>
      </g>
     </g>
    </g>
    <g id="xtick_11">
     <g id="line2d_21">
      <path d="M 121.692795 398.64351 
L 121.692795 18.118365 
" clip-path="url(#p5d661c22c9)" style="fill: none; stroke-dasharray: 0.8,1.32; stroke-dashoffset: 0; stroke: #808080; stroke-opacity: 0.7; stroke-width: 0.8"/>
     </g>
     <g id="line2d_22">
      <g>
       <use xlink:href="#md70505b3a4" x="121.692795" y="398.64351" style="stroke: #000000; stroke-width: 0.6"/>
      </g>
     </g>
    </g>
    <g id="xtick_12">
     <g id="line2d_23">
      <path d="M 162.748448 398.64351 
L 162.748448 18.118365 
" clip-path="url(#p5d661c22c9)" style="fill: none; stroke-dasharray: 0.8,1.32; stroke-dashoffset: 0; stroke: #808080; stroke-opacity: 0.7; stroke-width: 0.8"/>
     </g>
     <g id="line2d_24">
      <g>
       <use xlink:href="#md70505b3a4" x="162.748448" y="398.64351" style="stroke: #000000; stroke-width: 0.6"/>
      </g>
     </g>
    </g>
    <g id="xtick_13">
     <g id="line2d_25">
      <path d="M 183.276275 398.64351 
L 183.276275 18.118365 
" clip-path="url(#p5d661c22c9)" style="fill: none; stroke-dasharray: 0.8,1.32; stroke-dashoffset: 0; stroke: #808080; stroke-opacity: 0.7; stroke-width: 0.8"/>
     </g>
     <g id="line2d_26">
      <g>
       <use xlink:href="#md70505b3a4" x="183.276275" y="398.64351" style="stroke: #000000; stroke-width: 0.6"/>
      </g>
     </g>
    </g>
    <g id="xtick_14">
     <g id="line2d_27">
      <path d="M 203.804101 398.64351 
L 203.804101 18.118365 
" clip-path="url(#p5d661c22c9)" style="fill: none; stroke-dasharray: 0.8,1.32; stroke-dashoffset: 0; stroke: #808080; stroke-opacity: 0.7; stroke-width: 0.8"/>
     </g>
     <g id="line2d_28">
      <g>
       <use xlink:href="#md70505b3a4" x="203.804101" y="398.64351" style="stroke: #000000; stroke-width: 0.6"/>
      </g>
     </g>
    </g>
    <g id="xtick_15">
     <g id="line2d_29">
      <path d="M 224.331927 398.64351 
L 224.331927 18.118365 
" clip-path="url(#p5d661c22c9)" style="fill: none; stroke-dasharray: 0.8,1.32; stroke-dashoffset: 0; stroke: #808080; stroke-opacity: 0.7; stroke-width: 0.8"/>
     </g>
     <g id="line2d_30">
      <g>
       <use xlink:href="#md70505b3a4" x="224.331927" y="398.64351" style="stroke: #000000; stroke-width: 0.6"/>
      </g>
     </g>
    </g>
    <g id="xtick_16">
     <g id="line2d_31">
      <path d="M 265.38758 398.64351 
L 265.38758 18.118365 
" clip-path="url(#p5d661c22c9)" style="fill: none; stroke-dasharray: 0.8,1.32; stroke-dashoffset: 0; stroke: #808080; stroke-opacity: 0.7; stroke-width: 0.8"/>
     </g>
     <g id="line2d_32">
      <g>
       <use xlink:href="#md70505b3a4" x="265.38758" y="398.64351" style="stroke: #000000; stroke-width: 0.6"/>
      </g>
     </g>
    </g>
    <g id="xtick_17">
     <g id="line2d_33">
      <path d="M 285.915406 398.64351 
L 285.915406 18.118365 
" clip-path="url(#p5d661c22c9)" style="fill: none; stroke-dasharray: 0.8,1.32; stroke-dashoffset: 0; stroke: #808080; stroke-opacity: 0.7; stroke-width: 0.8"/>
     </g>
     <g id="line2d_34">
      <g>
       <use xlink:href="#md70505b3a4" x="285.915406" y="398.64351" style="stroke: #000000; stroke-width: 0.6"/>
      </g>
     </g>
    </g>
    <g id="xtick_18">
     <g id="line2d_35">
      <path d="M 306.443233 398.64351 
L 306.443233 18.118365 
" clip-path="url(#p5d661c22c9)" style="fill: none; stroke-dasharray: 0.8,1.32; stroke-dashoffset: 0; stroke: #808080; stroke-opacity: 0.7; stroke-width: 0.8"/>
     </g>
     <g id="line2d_36">
      <g>
       <use xlink:href="#md70505b3a4" x="306.443233" y="398.64351" style="stroke: #000000; stroke-width: 0.6"/>
      </g>
     </g>
    </g>
    <g id="xtick_19">
     <g id="line2d_37">
      <path d="M 326.971059 398.64351 
L 326.971059 18.118365 
" clip-path="url(#p5d661c22c9)" style="fill: none; stroke-dasharray: 0.8,1.32; stroke-dashoffset: 0; stroke: #808080; stroke-opacity: 0.7; stroke-width: 0.8"/>
     </g>
     <g id="line2d_38">
      <g>
       <use xlink:href="#md70505b3a4" x="326.971059" y="398.64351" style="stroke: #000000; stroke-width: 0.6"/>
      </g>
     </g>
    </g>
    <g id="xtick_20">
     <g id="line2d_39">
      <path d="M 368.026712 398.64351 
L 368.026712 18.118365 
" clip-path="url(#p5d661c22c9)" style="fill: none; stroke-dasharray: 0.8,1.32; stroke-dashoffset: 0; stroke: #808080; stroke-opacity: 0.7; stroke-width: 0.8"/>
     </g>
     <g id="line2d_40">
      <g>
       <use xlink:href="#md70505b3a4" x="368.026712" y="398.64351" style="stroke: #000000; stroke-width: 0.6"/>
      </g>
     </g>
    </g>
    <g id="xtick_21">
     <g id="line2d_41">
      <path d="M 388.554538 398.64351 
L 388.554538 18.118365 
" clip-path="url(#p5d661c22c9)" style="fill: none; stroke-dasharray: 0.8,1.32; stroke-dashoffset: 0; stroke: #808080; stroke-opacity: 0.7; stroke-width: 0.8"/>
     </g>
     <g id="line2d_42">
      <g>
       <use xlink:href="#md70505b3a4" x="388.554538" y="398.64351" style="stroke: #000000; stroke-width: 0.6"/>
      </g>
     </g>
    </g>
    <g id="xtick_22">
     <g id="line2d_43">
      <path d="M 409.082365 398.64351 
L 409.082365 18.118365 
" clip-path="url(#p5d661c22c9)" style="fill: none; stroke-dasharray: 0.8,1.32; stroke-dashoffset: 0; stroke: #808080; stroke-opacity: 0.7; stroke-width: 0.8"/>
     </g>
     <g id="line2d_44">
      <g>
       <use xlink:href="#md70505b3a4" x="409.082365" y="398.64351" style="stroke: #000000; stroke-width: 0.6"/>
      </g>
     </g>
    </g>
    <g id="xtick_23">
     <g id="line2d_45">
      <path d="M 429.610191 398.64351 
L 429.610191 18.118365 
" clip-path="url(#p5d661c22c9)" style="fill: none; stroke-dasharray: 0.8,1.32; stroke-dashoffset: 0; stroke: #808080; stroke-opacity: 0.7; stroke-width: 0.8"/>
     </g>
     <g id="line2d_46">
      <g>
       <use xlink:href="#md70505b3a4" x="429.610191" y="398.64351" style="stroke: #000000; stroke-width: 0.6"/>
      </g>
     </g>
    </g>
    <g id="xtick_24">
     <g id="line2d_47">
      <path d="M 470.665844 398.64351 
L 470.665844 18.118365 
" clip-path="url(#p5d661c22c9)" style="fill: none; stroke-dasharray: 0.8,1.32; stroke-dashoffset: 0; stroke: #808080; stroke-opacity: 0.7; stroke-width: 0.8"/>
     </g>
     <g id="line2d_48">
      <g>
       <use xlink:href="#md70505b3a4" x="470.665844" y="398.64351" style="stroke: #000000; stroke-width: 0.6"/>
      </g>
     </g>
    </g>
    <g id="xtick_25">
     <g id="line2d_49">
      <path d="M 491.19367 398.64351 
L 491.19367 18.118365 
" clip-path="url(#p5d661c22c9)" style="fill: none; stroke-dasharray: 0.8,1.32; stroke-dashoffset: 0; stroke: #808080; stroke-opacity: 0.7; stroke-width: 0.8"/>
     </g>
     <g id="line2d_50">
      <g>
       <use xlink:href="#md70505b3a4" x="491.19367" y="398.64351" style="stroke: #000000; stroke-width: 0.6"/>
      </g>
     </g>
    </g>
    <g id="xtick_26">
     <g id="line2d_51">
      <path d="M 511.721496 398.64351 
L 511.721496 18.118365 
" clip-path="url(#p5d661c22c9)" style="fill: none; stroke-dasharray: 0.8,1.32; stroke-dashoffset: 0; stroke: #808080; stroke-opacity: 0.7; stroke-width: 0.8"/>
     </g>
     <g id="line2d_52">
      <g>
       <use xlink:href="#md70505b3a4" x="511.721496" y="398.64351" style="stroke: #000000; stroke-width: 0.6"/>
      </g>
     </g>
    </g>
    <g id="xtick_27">
     <g id="line2d_53">
      <path d="M 532.249323 398.64351 
L 532.249323 18.118365 
" clip-path="url(#p5d661c22c9)" style="fill: none; stroke-dasharray: 0.8,1.32; stroke-dashoffset: 0; stroke: #808080; stroke-opacity: 0.7; stroke-width: 0.8"/>
     </g>
     <g id="line2d_54">
      <g>
       <use xlink:href="#md70505b3a4" x="532.249323" y="398.64351" style="stroke: #000000; stroke-width: 0.6"/>
      </g>
     </g>
    </g>
    <g id="xtick_28">
     <g id="line2d_55">
      <path d="M 573.304975 398.64351 
L 573.304975 18.118365 
" clip-path="url(#p5d661c22c9)" style="fill: none; stroke-dasharray: 0.8,1.32; stroke-dashoffset: 0; stroke: #808080; stroke-opacity: 0.7; stroke-width: 0.8"/>
     </g>
     <g id="line2d_56">
      <g>
       <use xlink:href="#md70505b3a4" x="573.304975" y="398.64351" style="stroke: #000000; stroke-width: 0.6"/>
      </g>
     </g>
    </g>
    <g id="xtick_29">
     <g id="line2d_57">
      <path d="M 593.832802 398.64351 
L 593.832802 18.118365 
" clip-path="url(#p5d661c22c9)" style="fill: none; stroke-dasharray: 0.8,1.32; stroke-dashoffset: 0; stroke: #808080; stroke-opacity: 0.7; stroke-width: 0.8"/>
     </g>
     <g id="line2d_58">
      <g>
       <use xlink:href="#md70505b3a4" x="593.832802" y="398.64351" style="stroke: #000000; stroke-width: 0.6"/>
      </g>
     </g>
    </g>
    <g id="xtick_30">
     <g id="line2d_59">
      <path d="M 614.360628 398.64351 
L 614.360628 18.118365 
" clip-path="url(#p5d661c22c9)" style="fill: none; stroke-dasharray: 0.8,1.32; stroke-dashoffset: 0; stroke: #808080; stroke-opacity: 0.7; stroke-width: 0.8"/>
     </g>
     <g id="line2d_60">
      <g>
       <use xlink:href="#md70505b3a4" x="614.360628" y="398.64351" style="stroke: #000000; stroke-width: 0.6"/>
      </g>
     </g>
    </g>
    <g id="xtick_31">
     <g id="line2d_61">
      <path d="M 634.888455 398.64351 
L 634.888455 18.118365 
" clip-path="url(#p5d661c22c9)" style="fill: none; stroke-dasharray: 0.8,1.32; stroke-dashoffset: 0; stroke: #808080; stroke-opacity: 0.7; stroke-width: 0.8"/>
     </g>
     <g id="line2d_62">
      <g>
       <use xlink:href="#md70505b3a4" x="634.888455" y="398.64351" style="stroke: #000000; stroke-width: 0.6"/>
      </g>
     </g>
    </g>
    <g id="xtick_32">
     <g id="line2d_63">
      <path d="M 675.944107 398.64351 
L 675.944107 18.118365 
" clip-path="url(#p5d661c22c9)" style="fill: none; stroke-dasharray: 0.8,1.32; stroke-dashoffset: 0; stroke: #808080; stroke-opacity: 0.7; stroke-width: 0.8"/>
     </g>
     <g id="line2d_64">
      <g>
       <use xlink:href="#md70505b3a4" x="675.944107" y="398.64351" style="stroke: #000000; stroke-width: 0.6"/>
      </g>
     </g>
    </g>
    <g id="xtick_33">
     <g id="line2d_65">
      <path d="M 696.471934 398.64351 
L 696.471934 18.118365 
" clip-path="url(#p5d661c22c9)" style="fill: none; stroke-dasharray: 0.8,1.32; stroke-dashoffset: 0; stroke: #808080; stroke-opacity: 0.7; stroke-width: 0.8"/>
     </g>
     <g id="line2d_66">
      <g>
       <use xlink:href="#md70505b3a4" x="696.471934" y="398.64351" style="stroke: #000000; stroke-width: 0.6"/>
      </g>
     </g>
    </g>
    <g id="xtick_34">
     <g id="line2d_67">
      <path d="M 716.99976 398.64351 
L 716.99976 18.118365 
" clip-path="url(#p5d661c22c9)" style="fill: none; stroke-dasharray: 0.8,1.32; stroke-dashoffset: 0; stroke: #808080; stroke-opacity: 0.7; stroke-width: 0.8"/>
     </g>
     <g id="line2d_68">
      <g>
       <use xlink:href="#md70505b3a4" x="716.99976" y="398.64351" style="stroke: #000000; stroke-width: 0.6"/>
      </g>
     </g>
    </g>
    <g id="text_8">
     <!-- Время, c -->
     <g transform="translate(355.902344 426.920073) scale(0.1 -0.1)">
      <defs>
       <path id="DejaVuSans-412" d="M 1259 2228 
L 1259 519 
L 2272 519 
Q 2781 519 3026 730 
Q 3272 941 3272 1375 
Q 3272 1813 3026 2020 
Q 2781 2228 2272 2228 
L 1259 2228 
z
M 1259 4147 
L 1259 2741 
L 2194 2741 
Q 2656 2741 2882 2914 
Q 3109 3088 3109 3444 
Q 3109 3797 2882 3972 
Q 2656 4147 2194 4147 
L 1259 4147 
z
M 628 4666 
L 2241 4666 
Q 2963 4666 3353 4366 
Q 3744 4066 3744 3513 
Q 3744 3084 3544 2831 
Q 3344 2578 2956 2516 
Q 3422 2416 3680 2098 
Q 3938 1781 3938 1306 
Q 3938 681 3513 340 
Q 3088 0 2303 0 
L 628 0 
L 628 4666 
z
" transform="scale(0.015625)"/>
       <path id="DejaVuSans-440" d="M 1159 525 
L 1159 -1331 
L 581 -1331 
L 581 3500 
L 1159 3500 
L 1159 2969 
Q 1341 3281 1617 3432 
Q 1894 3584 2278 3584 
Q 2916 3584 3314 3078 
Q 3713 2572 3713 1747 
Q 3713 922 3314 415 
Q 2916 -91 2278 -91 
Q 1894 -91 1617 61 
Q 1341 213 1159 525 
z
M 3116 1747 
Q 3116 2381 2855 2742 
Q 2594 3103 2138 3103 
Q 1681 3103 1420 2742 
Q 1159 2381 1159 1747 
Q 1159 1113 1420 752 
Q 1681 391 2138 391 
Q 2594 391 2855 752 
Q 3116 1113 3116 1747 
z
" transform="scale(0.015625)"/>
       <path id="DejaVuSans-435" d="M 3597 1894 
L 3597 1613 
L 953 1613 
Q 991 1019 1311 708 
Q 1631 397 2203 397 
Q 2534 397 2845 478 
Q 3156 559 3463 722 
L 3463 178 
Q 3153 47 2828 -22 
Q 2503 -91 2169 -91 
Q 1331 -91 842 396 
Q 353 884 353 1716 
Q 353 2575 817 3079 
Q 1281 3584 2069 3584 
Q 2775 3584 3186 3129 
Q 3597 2675 3597 1894 
z
M 3022 2063 
Q 3016 2534 2758 2815 
Q 2500 3097 2075 3097 
Q 1594 3097 1305 2825 
Q 1016 2553 972 2059 
L 3022 2063 
z
" transform="scale(0.015625)"/>
       <path id="DejaVuSans-43c" d="M 581 3500 
L 1422 3500 
L 2416 1156 
L 3413 3500 
L 4247 3500 
L 4247 0 
L 3669 0 
L 3669 2950 
L 2703 672 
L 2128 672 
L 1159 2950 
L 1159 0 
L 581 0 
L 581 3500 
z
" transform="scale(0.015625)"/>
       <path id="DejaVuSans-44f" d="M 1181 2491 
Q 1181 2231 1381 2084 
Q 1581 1938 1953 1938 
L 2728 1938 
L 2728 3041 
L 1953 3041 
Q 1581 3041 1381 2897 
Q 1181 2753 1181 2491 
z
M 363 0 
L 1431 1534 
Q 1069 1616 828 1830 
Q 588 2044 588 2491 
Q 588 2997 923 3248 
Q 1259 3500 1938 3500 
L 3306 3500 
L 3306 0 
L 2728 0 
L 2728 1478 
L 2013 1478 
L 981 0 
L 363 0 
z
" transform="scale(0.015625)"/>
       <path id="DejaVuSans-2c" d="M 750 794 
L 1409 794 
L 1409 256 
L 897 -744 
L 494 -744 
L 750 256 
L 750 794 
z
" transform="scale(0.015625)"/>
       <path id="DejaVuSans-20" transform="scale(0.015625)"/>
       <path id="DejaVuSans-63" d="M 3122 3366 
L 3122 2828 
Q 2878 2963 2633 3030 
Q 2388 3097 2138 3097 
Q 1578 3097 1268 2742 
Q 959 2388 959 1747 
Q 959 1106 1268 751 
Q 1578 397 2138 397 
Q 2388 397 2633 464 
Q 2878 531 3122 666 
L 3122 134 
Q 2881 22 2623 -34 
Q 2366 -91 2075 -91 
Q 1284 -91 818 406 
Q 353 903 353 1747 
Q 353 2603 823 3093 
Q 1294 3584 2113 3584 
Q 2378 3584 2631 3529 
Q 2884 3475 3122 3366 
z
" transform="scale(0.015625)"/>
      </defs>
      <use xlink:href="#DejaVuSans-412"/>
      <use xlink:href="#DejaVuSans-440" x="68.603516"/>
      <use xlink:href="#DejaVuSans-435" x="132.080078"/>
      <use xlink:href="#DejaVuSans-43c" x="193.603516"/>
      <use xlink:href="#DejaVuSans-44f" x="269.042969"/>
      <use xlink:href="#DejaVuSans-2c" x="329.199219"/>
      <use xlink:href="#DejaVuSans-20" x="360.986328"/>
      <use xlink:href="#DejaVuSans-63" x="392.773438"/>
     </g>
    </g>
   </g>
   <g id="matplotlib.axis_2">
    <g id="ytick_1">
     <g id="line2d_69">
      <path d="M 39.58149 348.039123 
L 716.99976 348.039123 
" clip-path="url(#p5d661c22c9)" style="fill: none; stroke: #000000; stroke-opacity: 0.8; stroke-width: 0.5; stroke-linecap: square"/>
     </g>
     <g id="line2d_70">
      <defs>
       <path id="md9a99fb923" d="M 0 0 
L -3.5 0 
" style="stroke: #000000; stroke-width: 0.8"/>
      </defs>
      <g>
       <use xlink:href="#md9a99fb923" x="39.58149" y="348.039123" style="stroke: #000000; stroke-width: 0.8"/>
      </g>
     </g>
     <g id="text_9">
      <!-- 0.6 -->
      <g transform="translate(16.678365 351.838342) scale(0.1 -0.1)">
       <defs>
        <path id="DejaVuSans-2e" d="M 684 794 
L 1344 794 
L 1344 0 
L 684 0 
L 684 794 
z
" transform="scale(0.015625)"/>
       </defs>
       <use xlink:href="#DejaVuSans-30"/>
       <use xlink:href="#DejaVuSans-2e" x="63.623047"/>
       <use xlink:href="#DejaVuSans-36" x="95.410156"/>
      </g>
     </g>
    </g>
    <g id="ytick_2">
     <g id="line2d_71">
      <path d="M 39.58149 280.566607 
L 716.99976 280.566607 
" clip-path="url(#p5d661c22c9)" style="fill: none; stroke: #000000; stroke-opacity: 0.8; stroke-width: 0.5; stroke-linecap: square"/>
     </g>
     <g id="line2d_72">
      <g>
       <use xlink:href="#md9a99fb923" x="39.58149" y="280.566607" style="stroke: #000000; stroke-width: 0.8"/>
      </g>
     </g>
     <g id="text_10">
      <!-- 0.8 -->
      <g transform="translate(16.678365 284.365826) scale(0.1 -0.1)">
       <defs>
        <path id="DejaVuSans-38" d="M 2034 2216 
Q 1584 2216 1326 1975 
Q 1069 1734 1069 1313 
Q 1069 891 1326 650 
Q 1584 409 2034 409 
Q 2484 409 2743 651 
Q 3003 894 3003 1313 
Q 3003 1734 2745 1975 
Q 2488 2216 2034 2216 
z
M 1403 2484 
Q 997 2584 770 2862 
Q 544 3141 544 3541 
Q 544 4100 942 4425 
Q 1341 4750 2034 4750 
Q 2731 4750 3128 4425 
Q 3525 4100 3525 3541 
Q 3525 3141 3298 2862 
Q 3072 2584 2669 2484 
Q 3125 2378 3379 2068 
Q 3634 1759 3634 1313 
Q 3634 634 3220 271 
Q 2806 -91 2034 -91 
Q 1263 -91 848 271 
Q 434 634 434 1313 
Q 434 1759 690 2068 
Q 947 2378 1403 2484 
z
M 1172 3481 
Q 1172 3119 1398 2916 
Q 1625 2713 2034 2713 
Q 2441 2713 2670 2916 
Q 2900 3119 2900 3481 
Q 2900 3844 2670 4047 
Q 2441 4250 2034 4250 
Q 1625 4250 1398 4047 
Q 1172 3844 1172 3481 
z
" transform="scale(0.015625)"/>
       </defs>
       <use xlink:href="#DejaVuSans-30"/>
       <use xlink:href="#DejaVuSans-2e" x="63.623047"/>
       <use xlink:href="#DejaVuSans-38" x="95.410156"/>
      </g>
     </g>
    </g>
    <g id="ytick_3">
     <g id="line2d_73">
      <path d="M 39.58149 213.094091 
L 716.99976 213.094091 
" clip-path="url(#p5d661c22c9)" style="fill: none; stroke: #000000; stroke-opacity: 0.8; stroke-width: 0.5; stroke-linecap: square"/>
     </g>
     <g id="line2d_74">
      <g>
       <use xlink:href="#md9a99fb923" x="39.58149" y="213.094091" style="stroke: #000000; stroke-width: 0.8"/>
      </g>
     </g>
     <g id="text_11">
      <!-- 1.0 -->
      <g transform="translate(16.678365 216.89331) scale(0.1 -0.1)">
       <use xlink:href="#DejaVuSans-31"/>
       <use xlink:href="#DejaVuSans-2e" x="63.623047"/>
       <use xlink:href="#DejaVuSans-30" x="95.410156"/>
      </g>
     </g>
    </g>
    <g id="ytick_4">
     <g id="line2d_75">
      <path d="M 39.58149 145.621575 
L 716.99976 145.621575 
" clip-path="url(#p5d661c22c9)" style="fill: none; stroke: #000000; stroke-opacity: 0.8; stroke-width: 0.5; stroke-linecap: square"/>
     </g>
     <g id="line2d_76">
      <g>
       <use xlink:href="#md9a99fb923" x="39.58149" y="145.621575" style="stroke: #000000; stroke-width: 0.8"/>
      </g>
     </g>
     <g id="text_12">
      <!-- 1.2 -->
      <g transform="translate(16.678365 149.420794) scale(0.1 -0.1)">
       <use xlink:href="#DejaVuSans-31"/>
       <use xlink:href="#DejaVuSans-2e" x="63.623047"/>
       <use xlink:href="#DejaVuSans-32" x="95.410156"/>
      </g>
     </g>
    </g>
    <g id="ytick_5">
     <g id="line2d_77">
      <path d="M 39.58149 78.149059 
L 716.99976 78.149059 
" clip-path="url(#p5d661c22c9)" style="fill: none; stroke: #000000; stroke-opacity: 0.8; stroke-width: 0.5; stroke-linecap: square"/>
     </g>
     <g id="line2d_78">
      <g>
       <use xlink:href="#md9a99fb923" x="39.58149" y="78.149059" style="stroke: #000000; stroke-width: 0.8"/>
      </g>
     </g>
     <g id="text_13">
      <!-- 1.4 -->
      <g transform="translate(16.678365 81.948278) scale(0.1 -0.1)">
       <use xlink:href="#DejaVuSans-31"/>
       <use xlink:href="#DejaVuSans-2e" x="63.623047"/>
       <use xlink:href="#DejaVuSans-34" x="95.410156"/>
      </g>
     </g>
    </g>
    <g id="ytick_6">
     <g id="line2d_79">
      <path d="M 39.58149 398.64351 
L 716.99976 398.64351 
" clip-path="url(#p5d661c22c9)" style="fill: none; stroke-dasharray: 0.8,1.32; stroke-dashoffset: 0; stroke: #808080; stroke-opacity: 0.7; stroke-width: 0.8"/>
     </g>
     <g id="line2d_80">
      <defs>
       <path id="mfd00b6db26" d="M 0 0 
L -2 0 
" style="stroke: #000000; stroke-width: 0.6"/>
      </defs>
      <g>
       <use xlink:href="#mfd00b6db26" x="39.58149" y="398.64351" style="stroke: #000000; stroke-width: 0.6"/>
      </g>
     </g>
    </g>
    <g id="ytick_7">
     <g id="line2d_81">
      <path d="M 39.58149 381.775381 
L 716.99976 381.775381 
" clip-path="url(#p5d661c22c9)" style="fill: none; stroke-dasharray: 0.8,1.32; stroke-dashoffset: 0; stroke: #808080; stroke-opacity: 0.7; stroke-width: 0.8"/>
     </g>
     <g id="line2d_82">
      <g>
       <use xlink:href="#mfd00b6db26" x="39.58149" y="381.775381" style="stroke: #000000; stroke-width: 0.6"/>
      </g>
     </g>
    </g>
    <g id="ytick_8">
     <g id="line2d_83">
      <path d="M 39.58149 364.907252 
L 716.99976 364.907252 
" clip-path="url(#p5d661c22c9)" style="fill: none; stroke-dasharray: 0.8,1.32; stroke-dashoffset: 0; stroke: #808080; stroke-opacity: 0.7; stroke-width: 0.8"/>
     </g>
     <g id="line2d_84">
      <g>
       <use xlink:href="#mfd00b6db26" x="39.58149" y="364.907252" style="stroke: #000000; stroke-width: 0.6"/>
      </g>
     </g>
    </g>
    <g id="ytick_9">
     <g id="line2d_85">
      <path d="M 39.58149 331.170994 
L 716.99976 331.170994 
" clip-path="url(#p5d661c22c9)" style="fill: none; stroke-dasharray: 0.8,1.32; stroke-dashoffset: 0; stroke: #808080; stroke-opacity: 0.7; stroke-width: 0.8"/>
     </g>
     <g id="line2d_86">
      <g>
       <use xlink:href="#mfd00b6db26" x="39.58149" y="331.170994" style="stroke: #000000; stroke-width: 0.6"/>
      </g>
     </g>
    </g>
    <g id="ytick_10">
     <g id="line2d_87">
      <path d="M 39.58149 314.302865 
L 716.99976 314.302865 
" clip-path="url(#p5d661c22c9)" style="fill: none; stroke-dasharray: 0.8,1.32; stroke-dashoffset: 0; stroke: #808080; stroke-opacity: 0.7; stroke-width: 0.8"/>
     </g>
     <g id="line2d_88">
      <g>
       <use xlink:href="#mfd00b6db26" x="39.58149" y="314.302865" style="stroke: #000000; stroke-width: 0.6"/>
      </g>
     </g>
    </g>
    <g id="ytick_11">
     <g id="line2d_89">
      <path d="M 39.58149 297.434736 
L 716.99976 297.434736 
" clip-path="url(#p5d661c22c9)" style="fill: none; stroke-dasharray: 0.8,1.32; stroke-dashoffset: 0; stroke: #808080; stroke-opacity: 0.7; stroke-width: 0.8"/>
     </g>
     <g id="line2d_90">
      <g>
       <use xlink:href="#mfd00b6db26" x="39.58149" y="297.434736" style="stroke: #000000; stroke-width: 0.6"/>
      </g>
     </g>
    </g>
    <g id="ytick_12">
     <g id="line2d_91">
      <path d="M 39.58149 263.698478 
L 716.99976 263.698478 
" clip-path="url(#p5d661c22c9)" style="fill: none; stroke-dasharray: 0.8,1.32; stroke-dashoffset: 0; stroke: #808080; stroke-opacity: 0.7; stroke-width: 0.8"/>
     </g>
     <g id="line2d_92">
      <g>
       <use xlink:href="#mfd00b6db26" x="39.58149" y="263.698478" style="stroke: #000000; stroke-width: 0.6"/>
      </g>
     </g>
    </g>
    <g id="ytick_13">
     <g id="line2d_93">
      <path d="M 39.58149 246.830349 
L 716.99976 246.830349 
" clip-path="url(#p5d661c22c9)" style="fill: none; stroke-dasharray: 0.8,1.32; stroke-dashoffset: 0; stroke: #808080; stroke-opacity: 0.7; stroke-width: 0.8"/>
     </g>
     <g id="line2d_94">
      <g>
       <use xlink:href="#mfd00b6db26" x="39.58149" y="246.830349" style="stroke: #000000; stroke-width: 0.6"/>
      </g>
     </g>
    </g>
    <g id="ytick_14">
     <g id="line2d_95">
      <path d="M 39.58149 229.96222 
L 716.99976 229.96222 
" clip-path="url(#p5d661c22c9)" style="fill: none; stroke-dasharray: 0.8,1.32; stroke-dashoffset: 0; stroke: #808080; stroke-opacity: 0.7; stroke-width: 0.8"/>
     </g>
     <g id="line2d_96">
      <g>
       <use xlink:href="#mfd00b6db26" x="39.58149" y="229.96222" style="stroke: #000000; stroke-width: 0.6"/>
      </g>
     </g>
    </g>
    <g id="ytick_15">
     <g id="line2d_97">
      <path d="M 39.58149 196.225962 
L 716.99976 196.225962 
" clip-path="url(#p5d661c22c9)" style="fill: none; stroke-dasharray: 0.8,1.32; stroke-dashoffset: 0; stroke: #808080; stroke-opacity: 0.7; stroke-width: 0.8"/>
     </g>
     <g id="line2d_98">
      <g>
       <use xlink:href="#mfd00b6db26" x="39.58149" y="196.225962" style="stroke: #000000; stroke-width: 0.6"/>
      </g>
     </g>
    </g>
    <g id="ytick_16">
     <g id="line2d_99">
      <path d="M 39.58149 179.357833 
L 716.99976 179.357833 
" clip-path="url(#p5d661c22c9)" style="fill: none; stroke-dasharray: 0.8,1.32; stroke-dashoffset: 0; stroke: #808080; stroke-opacity: 0.7; stroke-width: 0.8"/>
     </g>
     <g id="line2d_100">
      <g>
       <use xlink:href="#mfd00b6db26" x="39.58149" y="179.357833" style="stroke: #000000; stroke-width: 0.6"/>
      </g>
     </g>
    </g>
    <g id="ytick_17">
     <g id="line2d_101">
      <path d="M 39.58149 162.489704 
L 716.99976 162.489704 
" clip-path="url(#p5d661c22c9)" style="fill: none; stroke-dasharray: 0.8,1.32; stroke-dashoffset: 0; stroke: #808080; stroke-opacity: 0.7; stroke-width: 0.8"/>
     </g>
     <g id="line2d_102">
      <g>
       <use xlink:href="#mfd00b6db26" x="39.58149" y="162.489704" style="stroke: #000000; stroke-width: 0.6"/>
      </g>
     </g>
    </g>
    <g id="ytick_18">
     <g id="line2d_103">
      <path d="M 39.58149 128.753446 
L 716.99976 128.753446 
" clip-path="url(#p5d661c22c9)" style="fill: none; stroke-dasharray: 0.8,1.32; stroke-dashoffset: 0; stroke: #808080; stroke-opacity: 0.7; stroke-width: 0.8"/>
     </g>
     <g id="line2d_104">
      <g>
       <use xlink:href="#mfd00b6db26" x="39.58149" y="128.753446" style="stroke: #000000; stroke-width: 0.6"/>
      </g>
     </g>
    </g>
    <g id="ytick_19">
     <g id="line2d_105">
      <path d="M 39.58149 111.885317 
L 716.99976 111.885317 
" clip-path="url(#p5d661c22c9)" style="fill: none; stroke-dasharray: 0.8,1.32; stroke-dashoffset: 0; stroke: #808080; stroke-opacity: 0.7; stroke-width: 0.8"/>
     </g>
     <g id="line2d_106">
      <g>
       <use xlink:href="#mfd00b6db26" x="39.58149" y="111.885317" style="stroke: #000000; stroke-width: 0.6"/>
      </g>
     </g>
    </g>
    <g id="ytick_20">
     <g id="line2d_107">
      <path d="M 39.58149 95.017188 
L 716.99976 95.017188 
" clip-path="url(#p5d661c22c9)" style="fill: none; stroke-dasharray: 0.8,1.32; stroke-dashoffset: 0; stroke: #808080; stroke-opacity: 0.7; stroke-width: 0.8"/>
     </g>
     <g id="line2d_108">
      <g>
       <use xlink:href="#mfd00b6db26" x="39.58149" y="95.017188" style="stroke: #000000; stroke-width: 0.6"/>
      </g>
     </g>
    </g>
    <g id="ytick_21">
     <g id="line2d_109">
      <path d="M 39.58149 61.28093 
L 716.99976 61.28093 
" clip-path="url(#p5d661c22c9)" style="fill: none; stroke-dasharray: 0.8,1.32; stroke-dashoffset: 0; stroke: #808080; stroke-opacity: 0.7; stroke-width: 0.8"/>
     </g>
     <g id="line2d_110">
      <g>
       <use xlink:href="#mfd00b6db26" x="39.58149" y="61.28093" style="stroke: #000000; stroke-width: 0.6"/>
      </g>
     </g>
    </g>
    <g id="ytick_22">
     <g id="line2d_111">
      <path d="M 39.58149 44.412801 
L 716.99976 44.412801 
" clip-path="url(#p5d661c22c9)" style="fill: none; stroke-dasharray: 0.8,1.32; stroke-dashoffset: 0; stroke: #808080; stroke-opacity: 0.7; stroke-width: 0.8"/>
     </g>
     <g id="line2d_112">
      <g>
       <use xlink:href="#mfd00b6db26" x="39.58149" y="44.412801" style="stroke: #000000; stroke-width: 0.6"/>
      </g>
     </g>
    </g>
    <g id="ytick_23">
     <g id="line2d_113">
      <path d="M 39.58149 27.544672 
L 716.99976 27.544672 
" clip-path="url(#p5d661c22c9)" style="fill: none; stroke-dasharray: 0.8,1.32; stroke-dashoffset: 0; stroke: #808080; stroke-opacity: 0.7; stroke-width: 0.8"/>
     </g>
     <g id="line2d_114">
      <g>
       <use xlink:href="#mfd00b6db26" x="39.58149" y="27.544672" style="stroke: #000000; stroke-width: 0.6"/>
      </g>
     </g>
    </g>
    <g id="text_14">
     <!-- Напряжение, В -->
     <g transform="translate(10.598677 248.440313) rotate(-90) scale(0.1 -0.1)">
      <defs>
       <path id="DejaVuSans-41d" d="M 628 4666 
L 1259 4666 
L 1259 2753 
L 3553 2753 
L 3553 4666 
L 4184 4666 
L 4184 0 
L 3553 0 
L 3553 2222 
L 1259 2222 
L 1259 0 
L 628 0 
L 628 4666 
z
" transform="scale(0.015625)"/>
       <path id="DejaVuSans-430" d="M 2194 1759 
Q 1497 1759 1228 1600 
Q 959 1441 959 1056 
Q 959 750 1161 570 
Q 1363 391 1709 391 
Q 2188 391 2477 730 
Q 2766 1069 2766 1631 
L 2766 1759 
L 2194 1759 
z
M 3341 1997 
L 3341 0 
L 2766 0 
L 2766 531 
Q 2569 213 2275 61 
Q 1981 -91 1556 -91 
Q 1019 -91 701 211 
Q 384 513 384 1019 
Q 384 1609 779 1909 
Q 1175 2209 1959 2209 
L 2766 2209 
L 2766 2266 
Q 2766 2663 2505 2880 
Q 2244 3097 1772 3097 
Q 1472 3097 1187 3025 
Q 903 2953 641 2809 
L 641 3341 
Q 956 3463 1253 3523 
Q 1550 3584 1831 3584 
Q 2591 3584 2966 3190 
Q 3341 2797 3341 1997 
z
" transform="scale(0.015625)"/>
       <path id="DejaVuSans-43f" d="M 3603 3500 
L 3603 0 
L 3025 0 
L 3025 3041 
L 1159 3041 
L 1159 0 
L 581 0 
L 581 3500 
L 3603 3500 
z
" transform="scale(0.015625)"/>
       <path id="DejaVuSans-436" d="M 2597 3500 
L 3169 3500 
L 3169 1856 
L 4697 3500 
L 5366 3500 
L 4109 2153 
L 5547 0 
L 4931 0 
L 3753 1769 
L 3169 1141 
L 3169 0 
L 2597 0 
L 2597 1141 
L 2013 1769 
L 834 0 
L 219 0 
L 1656 2153 
L 400 3500 
L 1069 3500 
L 2597 1856 
L 2597 3500 
z
" transform="scale(0.015625)"/>
       <path id="DejaVuSans-43d" d="M 581 3500 
L 1159 3500 
L 1159 2072 
L 3025 2072 
L 3025 3500 
L 3603 3500 
L 3603 0 
L 3025 0 
L 3025 1613 
L 1159 1613 
L 1159 0 
L 581 0 
L 581 3500 
z
" transform="scale(0.015625)"/>
       <path id="DejaVuSans-438" d="M 3578 3500 
L 3578 0 
L 3006 0 
L 3006 2809 
L 1319 0 
L 581 0 
L 581 3500 
L 1153 3500 
L 1153 697 
L 2838 3500 
L 3578 3500 
z
" transform="scale(0.015625)"/>
      </defs>
      <use xlink:href="#DejaVuSans-41d"/>
      <use xlink:href="#DejaVuSans-430" x="75.195312"/>
      <use xlink:href="#DejaVuSans-43f" x="136.474609"/>
      <use xlink:href="#DejaVuSans-440" x="201.855469"/>
      <use xlink:href="#DejaVuSans-44f" x="265.332031"/>
      <use xlink:href="#DejaVuSans-436" x="325.488281"/>
      <use xlink:href="#DejaVuSans-435" x="415.576172"/>
      <use xlink:href="#DejaVuSans-43d" x="477.099609"/>
      <use xlink:href="#DejaVuSans-438" x="542.480469"/>
      <use xlink:href="#DejaVuSans-435" x="607.470703"/>
      <use xlink:href="#DejaVuSans-2c" x="668.994141"/>
      <use xlink:href="#DejaVuSans-20" x="700.78125"/>
      <use xlink:href="#DejaVuSans-412" x="732.568359"/>
     </g>
    </g>
   </g>
   <g id="line2d_115">
    <path d="M 39.58149 397.651267 
L 39.959959 397.651267 
L 40.338429 393.285398 
L 41.852306 393.285398 
L 42.230775 380.187792 
L 44.880061 380.187792 
L 45.25853 375.821924 
L 46.772408 375.821924 
L 47.150877 367.090186 
L 47.529346 362.724318 
L 49.421693 362.724318 
L 49.800162 358.358449 
L 51.692509 358.358449 
L 52.070978 345.260843 
L 55.098733 345.260843 
L 55.477203 340.894974 
L 56.612611 340.894974 
L 56.99108 336.529106 
L 57.369549 327.797368 
L 57.748019 327.797368 
L 58.126488 336.529106 
L 58.504957 327.797368 
L 58.883427 327.797368 
L 59.261896 323.4315 
L 59.640365 327.797368 
L 60.397304 327.797368 
L 60.775773 323.4315 
L 62.289651 323.4315 
L 62.66812 314.699762 
L 63.04659 314.699762 
L 63.425059 319.065631 
L 63.803528 310.333894 
L 66.452814 310.333894 
L 66.831283 305.968025 
L 67.209752 310.333894 
L 67.588222 305.968025 
L 68.72363 305.968025 
L 69.102099 301.602156 
L 69.480568 305.968025 
L 69.859038 292.870419 
L 70.237507 305.968025 
L 70.615977 292.870419 
L 71.751385 292.870419 
L 72.129854 288.50455 
L 72.508323 292.870419 
L 72.886793 292.870419 
L 73.265262 288.50455 
L 74.779139 288.50455 
L 75.157609 275.406944 
L 75.536078 288.50455 
L 75.914547 288.50455 
L 76.293017 275.406944 
L 76.671486 288.50455 
L 77.049955 275.406944 
L 80.07771 275.406944 
L 80.45618 271.041075 
L 83.105465 271.041075 
L 83.483934 257.943469 
L 86.890158 257.943469 
L 87.268628 253.577601 
L 87.647097 257.943469 
L 88.025567 253.577601 
L 89.160975 253.577601 
L 89.539444 249.211732 
L 89.917913 253.577601 
L 90.674852 253.577601 
L 91.053321 240.479995 
L 91.431791 253.577601 
L 91.81026 240.479995 
L 92.188729 244.845863 
L 92.567199 240.479995 
L 94.459545 240.479995 
L 94.838015 236.114126 
L 97.108831 236.114126 
L 97.4873 231.748257 
L 97.86577 236.114126 
L 98.244239 223.01652 
L 98.622708 227.382389 
L 99.001178 223.01652 
L 99.758116 231.748257 
L 100.136586 223.01652 
L 102.785871 223.01652 
L 103.16434 218.650651 
L 106.192095 218.650651 
L 106.570565 209.918914 
L 106.949034 209.918914 
L 107.327503 218.650651 
L 107.705973 218.650651 
L 108.462911 209.918914 
L 108.841381 218.650651 
L 109.21985 205.553045 
L 113.004543 205.553045 
L 113.383013 201.187177 
L 114.139952 201.187177 
L 114.518421 205.553045 
L 114.89689 201.187177 
L 116.410768 201.187177 
L 116.789237 192.455439 
L 117.167706 201.187177 
L 117.546176 201.187177 
L 117.924645 196.821308 
L 118.303114 201.187177 
L 118.681584 188.089571 
L 122.466277 188.089571 
L 122.844747 183.723702 
L 126.62944 183.723702 
L 127.007909 170.626096 
L 127.386379 170.626096 
L 127.764848 183.723702 
L 128.143317 174.991965 
L 128.521787 174.991965 
L 128.900256 183.723702 
L 129.278725 170.626096 
L 129.657195 179.357833 
L 130.035664 170.626096 
L 133.820358 170.626096 
L 134.198827 166.260227 
L 134.577296 170.626096 
L 134.955766 170.626096 
L 135.334235 166.260227 
L 136.469643 166.260227 
L 136.848112 170.626096 
L 137.226582 166.260227 
L 139.875867 166.260227 
L 140.254337 157.52849 
L 140.632806 166.260227 
L 141.011275 153.162621 
L 141.389745 166.260227 
L 141.768214 161.894359 
L 142.146683 153.162621 
L 142.525153 161.894359 
L 142.903622 153.162621 
L 143.660561 153.162621 
L 144.03903 148.796752 
L 144.417499 153.162621 
L 147.066785 153.162621 
L 147.445254 148.796752 
L 147.823723 148.796752 
L 148.202193 153.162621 
L 148.580662 148.796752 
L 153.122294 148.796752 
L 153.500764 144.430884 
L 153.879233 148.796752 
L 154.257702 148.796752 
L 154.636172 135.699146 
L 155.014641 135.699146 
L 155.39311 148.796752 
L 155.77158 144.430884 
L 156.528518 144.430884 
L 156.906988 135.699146 
L 160.691681 135.699146 
L 161.070151 131.333278 
L 161.44862 135.699146 
L 162.962497 135.699146 
L 163.340967 131.333278 
L 170.153415 131.333278 
L 170.531884 122.60154 
L 170.910354 131.333278 
L 171.288823 131.333278 
L 171.667292 126.967409 
L 172.045762 118.235672 
L 172.424231 131.333278 
L 172.8027 118.235672 
L 174.695047 118.235672 
L 175.073516 113.869803 
L 175.451986 118.235672 
L 179.993618 118.235672 
L 180.372087 113.869803 
L 180.750557 118.235672 
L 181.129026 113.869803 
L 186.427597 113.869803 
L 186.806066 105.138066 
L 187.184536 113.869803 
L 187.941474 113.869803 
L 188.319944 105.138066 
L 188.698413 100.772197 
L 189.076882 105.138066 
L 189.833821 105.138066 
L 190.21229 100.772197 
L 199.295555 100.772197 
L 199.674024 96.406328 
L 200.052493 100.772197 
L 200.430963 96.406328 
L 200.809432 100.772197 
L 201.187901 96.406328 
L 204.215656 96.406328 
L 204.594126 100.772197 
L 204.972595 96.406328 
L 208.378819 96.406328 
L 209.135758 87.674591 
L 209.514227 92.04046 
L 209.892696 83.308722 
L 210.271166 96.406328 
L 210.649635 87.674591 
L 211.028105 96.406328 
L 211.785043 96.406328 
L 212.920451 83.308722 
L 213.298921 83.308722 
L 213.67739 92.04046 
L 214.055859 83.308722 
L 214.812798 83.308722 
L 215.191267 87.674591 
L 215.569737 83.308722 
L 215.948206 96.406328 
L 216.326675 83.308722 
L 222.382185 83.308722 
L 222.760654 78.942854 
L 223.139124 83.308722 
L 223.896062 83.308722 
L 224.274532 78.942854 
L 224.653001 83.308722 
L 225.03147 78.942854 
L 225.40994 83.308722 
L 225.788409 78.942854 
L 226.166878 83.308722 
L 226.545348 78.942854 
L 226.923817 83.308722 
L 227.302286 78.942854 
L 227.680756 78.942854 
L 228.059225 83.308722 
L 228.437695 83.308722 
L 228.816164 78.942854 
L 235.628612 78.942854 
L 236.007081 70.211116 
L 236.385551 78.942854 
L 236.76402 74.576985 
L 237.14249 78.942854 
L 237.520959 74.576985 
L 237.899428 78.942854 
L 239.034836 78.942854 
L 239.413306 70.211116 
L 239.791775 74.576985 
L 240.170244 74.576985 
L 240.548714 78.942854 
L 240.927183 78.942854 
L 241.305652 70.211116 
L 241.684122 78.942854 
L 242.062591 65.845248 
L 242.44106 65.845248 
L 242.81953 78.942854 
L 243.197999 65.845248 
L 244.333407 65.845248 
L 244.711876 74.576985 
L 245.090346 65.845248 
L 246.225754 65.845248 
L 246.604223 74.576985 
L 246.982693 65.845248 
L 256.065957 65.845248 
L 256.444426 61.479379 
L 257.579834 61.479379 
L 257.958304 65.845248 
L 258.336773 65.845248 
L 258.715242 61.479379 
L 259.093712 61.479379 
L 259.472181 65.845248 
L 259.85065 61.479379 
L 260.22912 61.479379 
L 260.607589 65.845248 
L 260.986058 61.479379 
L 262.878405 61.479379 
L 263.256875 65.845248 
L 263.635344 61.479379 
L 264.013813 65.845248 
L 264.392283 61.479379 
L 268.555445 61.479379 
L 268.933915 65.845248 
L 269.312384 61.479379 
L 276.503302 61.479379 
L 276.881771 48.381773 
L 277.26024 61.479379 
L 278.774118 61.479379 
L 279.531056 52.747642 
L 279.909526 61.479379 
L 280.287995 61.479379 
L 280.666465 57.11351 
L 281.044934 61.479379 
L 281.423403 48.381773 
L 281.801873 57.11351 
L 282.180342 61.479379 
L 283.31575 48.381773 
L 283.694219 61.479379 
L 284.072689 57.11351 
L 284.451158 48.381773 
L 284.829627 61.479379 
L 285.208097 48.381773 
L 286.721974 48.381773 
L 287.100443 61.479379 
L 287.478913 48.381773 
L 287.857382 61.479379 
L 288.235851 48.381773 
L 288.614321 57.11351 
L 288.99279 48.381773 
L 289.749729 48.381773 
L 290.128198 57.11351 
L 290.506668 48.381773 
L 290.885137 57.11351 
L 291.263606 57.11351 
L 291.642076 48.381773 
L 305.266972 48.381773 
L 305.645441 44.015904 
L 306.023911 44.015904 
L 306.40238 48.381773 
L 306.78085 44.015904 
L 307.159319 48.381773 
L 308.294727 48.381773 
L 308.673196 44.015904 
L 309.051666 48.381773 
L 309.808604 48.381773 
L 310.187074 44.015904 
L 310.565543 48.381773 
L 312.45789 48.381773 
L 312.836359 44.015904 
L 313.593298 44.015904 
L 313.971767 48.381773 
L 314.350236 48.381773 
L 314.728706 44.015904 
L 315.485645 44.015904 
L 315.864114 48.381773 
L 316.621053 48.381773 
L 316.999522 44.015904 
L 317.377991 48.381773 
L 317.756461 44.015904 
L 318.891869 44.015904 
L 319.270338 48.381773 
L 319.648807 44.015904 
L 320.027277 44.015904 
L 320.405746 48.381773 
L 320.784215 44.015904 
L 336.301459 44.015904 
L 336.679928 39.650036 
L 337.058397 44.015904 
L 337.815336 44.015904 
L 338.193805 30.918298 
L 338.572275 44.015904 
L 340.464621 44.015904 
L 340.843091 39.650036 
L 341.22156 44.015904 
L 342.356968 44.015904 
L 342.735438 39.650036 
L 343.113907 44.015904 
L 343.870846 35.284167 
L 344.627784 44.015904 
L 346.141662 44.015904 
L 346.520131 39.650036 
L 346.8986 39.650036 
L 347.27707 44.015904 
L 347.655539 44.015904 
L 348.034008 30.918298 
L 348.412478 30.918298 
L 348.790947 44.015904 
L 349.169416 30.918298 
L 349.547886 30.918298 
L 349.926355 35.284167 
L 350.304825 44.015904 
L 352.575641 44.015904 
L 352.95411 39.650036 
L 353.332579 44.015904 
L 353.711049 44.015904 
L 354.089518 39.650036 
L 354.467987 30.918298 
L 355.981865 30.918298 
L 356.360334 44.015904 
L 356.738803 44.015904 
L 357.117273 30.918298 
L 357.495742 39.650036 
L 357.874211 44.015904 
L 358.63115 44.015904 
L 359.009619 35.284167 
L 359.388089 30.918298 
L 359.766558 44.015904 
L 360.145028 30.918298 
L 360.523497 44.015904 
L 360.901966 30.918298 
L 364.30819 30.918298 
L 365.065129 39.650036 
L 365.443598 30.918298 
L 369.606761 30.918298 
L 369.985231 39.650036 
L 370.3637 30.918298 
L 377.554618 30.918298 
L 377.933087 35.284167 
L 378.311556 30.918298 
L 389.287167 30.918298 
L 389.665637 26.552429 
L 390.044106 30.918298 
L 391.179514 30.918298 
L 391.557983 44.015904 
L 394.207269 44.015904 
L 394.585738 48.381773 
L 394.964208 57.11351 
L 395.342677 48.381773 
L 395.721146 52.747642 
L 396.099616 52.747642 
L 396.478085 48.381773 
L 396.856554 61.479379 
L 397.991962 61.479379 
L 398.370432 65.845248 
L 398.748901 65.845248 
L 399.12737 61.479379 
L 399.50584 65.845248 
L 401.398186 65.845248 
L 401.776656 78.942854 
L 402.155125 70.211116 
L 402.533594 78.942854 
L 402.912064 83.308722 
L 403.290533 78.942854 
L 403.669003 78.942854 
L 404.047472 83.308722 
L 404.425941 78.942854 
L 404.804411 83.308722 
L 406.318288 83.308722 
L 406.696757 96.406328 
L 407.075227 96.406328 
L 407.453696 83.308722 
L 407.832165 92.04046 
L 408.210635 96.406328 
L 408.967573 96.406328 
L 409.346043 100.772197 
L 409.724512 96.406328 
L 410.102981 96.406328 
L 410.481451 100.772197 
L 411.616859 100.772197 
L 411.995328 105.138066 
L 412.373798 100.772197 
L 412.752267 105.138066 
L 413.130736 113.869803 
L 415.023083 113.869803 
L 415.401552 118.235672 
L 418.429307 118.235672 
L 418.807776 131.333278 
L 421.457062 131.333278 
L 421.835531 135.699146 
L 422.214001 135.699146 
L 422.59247 131.333278 
L 422.970939 135.699146 
L 424.484817 135.699146 
L 424.863286 140.065015 
L 425.241755 148.796752 
L 425.620225 144.430884 
L 425.998694 148.796752 
L 427.891041 148.796752 
L 428.26951 153.162621 
L 428.647979 148.796752 
L 429.026449 148.796752 
L 429.404918 153.162621 
L 431.675734 153.162621 
L 432.054204 166.260227 
L 432.811142 166.260227 
L 433.189612 161.894359 
L 433.568081 166.260227 
L 435.838897 166.260227 
L 436.217366 170.626096 
L 436.595836 166.260227 
L 436.974305 166.260227 
L 437.352774 170.626096 
L 439.623591 170.626096 
L 440.758999 183.723702 
L 442.651345 183.723702 
L 443.029815 188.089571 
L 443.408284 188.089571 
L 443.786753 183.723702 
L 444.165223 188.089571 
L 448.328386 188.089571 
L 448.706855 192.455439 
L 449.085324 192.455439 
L 449.463794 201.187177 
L 452.870018 201.187177 
L 453.248487 205.553045 
L 457.41165 205.553045 
L 457.790119 218.650651 
L 458.168589 218.650651 
L 458.547058 209.918914 
L 458.925527 218.650651 
L 461.196343 218.650651 
L 461.574813 223.01652 
L 461.953282 218.650651 
L 462.331751 223.01652 
L 462.710221 218.650651 
L 463.08869 218.650651 
L 463.467159 223.01652 
L 463.845629 218.650651 
L 464.224098 223.01652 
L 466.116445 223.01652 
L 466.494914 231.748257 
L 466.873384 223.01652 
L 467.251853 227.382389 
L 467.630322 223.01652 
L 468.008792 227.382389 
L 468.387261 236.114126 
L 472.171954 236.114126 
L 472.550424 240.479995 
L 472.928893 236.114126 
L 473.307363 240.479995 
L 473.685832 236.114126 
L 474.064301 240.479995 
L 474.442771 240.479995 
L 474.82124 236.114126 
L 475.199709 240.479995 
L 475.578179 240.479995 
L 475.956648 253.577601 
L 476.335117 240.479995 
L 476.713587 240.479995 
L 477.092056 249.211732 
L 477.470525 240.479995 
L 477.848995 249.211732 
L 478.227464 240.479995 
L 478.605933 249.211732 
L 478.984403 240.479995 
L 479.362872 249.211732 
L 479.741341 253.577601 
L 483.904504 253.577601 
L 484.282974 257.943469 
L 484.661443 253.577601 
L 485.039912 253.577601 
L 485.418382 257.943469 
L 485.796851 257.943469 
L 486.17532 253.577601 
L 486.55379 257.943469 
L 490.338483 257.943469 
L 490.716953 262.309338 
L 491.095422 262.309338 
L 491.473891 271.041075 
L 498.286339 271.041075 
L 498.664809 275.406944 
L 499.800217 275.406944 
L 500.178686 271.041075 
L 500.557156 275.406944 
L 504.341849 275.406944 
L 504.720318 284.138681 
L 505.098788 275.406944 
L 505.477257 288.50455 
L 505.855726 288.50455 
L 506.234196 275.406944 
L 506.612665 279.772813 
L 506.991134 275.406944 
L 507.369604 288.50455 
L 510.018889 288.50455 
L 510.397359 275.406944 
L 510.775828 288.50455 
L 511.532767 288.50455 
L 511.911236 292.870419 
L 512.289705 292.870419 
L 512.668175 288.50455 
L 514.182052 288.50455 
L 514.560521 292.870419 
L 514.938991 288.50455 
L 515.31746 292.870419 
L 515.695929 288.50455 
L 516.074399 292.870419 
L 520.616031 292.870419 
L 520.9945 297.236288 
L 521.37297 292.870419 
L 521.751439 292.870419 
L 522.129908 301.602156 
L 522.508378 297.236288 
L 522.886847 297.236288 
L 523.265316 305.968025 
L 523.643786 301.602156 
L 524.022255 305.968025 
L 524.779194 297.236288 
L 525.157663 305.968025 
L 529.699295 305.968025 
L 530.077765 310.333894 
L 530.456234 305.968025 
L 531.970111 305.968025 
L 532.348581 310.333894 
L 532.72705 305.968025 
L 533.105519 310.333894 
L 534.619397 310.333894 
L 534.997866 305.968025 
L 535.376336 310.333894 
L 541.431845 310.333894 
L 541.810314 323.4315 
L 542.188784 319.065631 
L 542.567253 319.065631 
L 542.945723 314.699762 
L 543.324192 314.699762 
L 543.702661 323.4315 
L 544.081131 310.333894 
L 544.4596 314.699762 
L 544.838069 314.699762 
L 545.216539 323.4315 
L 545.595008 310.333894 
L 545.973477 323.4315 
L 547.108885 323.4315 
L 547.487355 314.699762 
L 547.865824 323.4315 
L 552.785926 323.4315 
L 553.164395 327.797368 
L 553.542864 323.4315 
L 553.921334 327.797368 
L 554.299803 323.4315 
L 554.678272 327.797368 
L 555.056742 327.797368 
L 555.435211 323.4315 
L 555.81368 327.797368 
L 567.167761 327.797368 
L 567.54623 336.529106 
L 567.924699 340.894974 
L 568.303169 336.529106 
L 568.681638 336.529106 
L 569.060107 340.894974 
L 569.438577 332.163237 
L 570.195516 340.894974 
L 571.330924 340.894974 
L 571.709393 332.163237 
L 572.087862 332.163237 
L 572.466332 340.894974 
L 574.737148 340.894974 
L 575.115617 327.797368 
L 575.494086 340.894974 
L 578.143372 340.894974 
L 578.521841 345.260843 
L 578.900311 340.894974 
L 580.414188 340.894974 
L 580.792657 345.260843 
L 581.171127 340.894974 
L 581.549596 340.894974 
L 581.928065 345.260843 
L 583.441943 345.260843 
L 583.820412 340.894974 
L 584.198881 345.260843 
L 586.091228 345.260843 
L 586.469697 340.894974 
L 586.848167 345.260843 
L 587.226636 345.260843 
L 587.605106 340.894974 
L 587.983575 345.260843 
L 595.174492 345.260843 
L 595.552962 353.99258 
L 595.931431 345.260843 
L 597.066839 345.260843 
L 597.445309 349.626712 
L 597.823778 358.358449 
L 598.202247 353.99258 
L 598.580717 353.99258 
L 598.959186 345.260843 
L 599.337655 349.626712 
L 600.094594 349.626712 
L 600.473063 345.260843 
L 600.851533 358.358449 
L 601.230002 345.260843 
L 601.608471 353.99258 
L 602.36541 345.260843 
L 602.743879 345.260843 
L 603.122349 353.99258 
L 603.500818 353.99258 
L 603.879287 358.358449 
L 604.257757 345.260843 
L 604.636226 358.358449 
L 606.907042 358.358449 
L 607.285512 353.99258 
L 607.663981 358.358449 
L 608.04245 353.99258 
L 608.42092 358.358449 
L 608.799389 349.626712 
L 609.177858 358.358449 
L 615.990307 358.358449 
L 616.368776 362.724318 
L 616.747245 358.358449 
L 617.504184 358.358449 
L 617.882653 362.724318 
L 618.261123 358.358449 
L 619.396531 358.358449 
L 619.775 362.724318 
L 620.153469 362.724318 
L 620.531939 358.358449 
L 620.910408 358.358449 
L 621.288877 362.724318 
L 624.316632 362.724318 
L 624.695102 358.358449 
L 625.073571 362.724318 
L 627.722856 362.724318 
L 628.101326 358.358449 
L 628.479795 362.724318 
L 629.993672 362.724318 
L 630.372142 358.358449 
L 630.750611 362.724318 
L 636.427651 362.724318 
L 636.806121 358.358449 
L 637.18459 362.724318 
L 644.753977 362.724318 
L 645.132446 371.456055 
L 645.510916 362.724318 
L 645.889385 367.090186 
L 646.267854 362.724318 
L 646.646324 371.456055 
L 647.024793 371.456055 
L 647.403262 375.821924 
L 647.781732 375.821924 
L 648.160201 367.090186 
L 648.538671 362.724318 
L 649.295609 362.724318 
L 649.674079 375.821924 
L 650.052548 375.821924 
L 650.431017 371.456055 
L 650.809487 375.821924 
L 651.187956 371.456055 
L 651.566425 362.724318 
L 651.944895 362.724318 
L 652.323364 371.456055 
L 652.701833 362.724318 
L 653.080303 375.821924 
L 653.458772 362.724318 
L 653.837241 367.090186 
L 654.215711 375.821924 
L 654.59418 371.456055 
L 654.972649 371.456055 
L 655.351119 375.821924 
L 655.729588 375.821924 
L 656.108057 367.090186 
L 656.486527 375.821924 
L 661.785098 375.821924 
L 662.163567 367.090186 
L 662.542036 375.821924 
L 662.920506 371.456055 
L 663.298975 375.821924 
L 666.32673 375.821924 
L 666.705199 371.456055 
L 667.083669 362.724318 
L 667.462138 375.821924 
L 673.139178 375.821924 
L 673.517647 380.187792 
L 673.896117 375.821924 
L 674.653056 375.821924 
L 675.031525 380.187792 
L 675.409994 375.821924 
L 678.816218 375.821924 
L 679.194688 380.187792 
L 679.573157 380.187792 
L 679.951626 375.821924 
L 680.330096 380.187792 
L 680.708565 380.187792 
L 681.087034 375.821924 
L 681.465504 380.187792 
L 681.843973 375.821924 
L 682.222442 375.821924 
L 682.600912 380.187792 
L 684.114789 380.187792 
L 684.493259 375.821924 
L 685.250197 375.821924 
L 685.628667 380.187792 
L 686.007136 375.821924 
L 686.385605 380.187792 
L 686.764075 375.821924 
L 687.521013 375.821924 
L 687.899483 380.187792 
L 690.170299 380.187792 
L 690.548768 375.821924 
L 690.927237 380.187792 
L 692.441115 380.187792 
L 692.819584 375.821924 
L 693.198054 380.187792 
L 693.576523 375.821924 
L 693.954992 380.187792 
L 694.333462 375.821924 
L 694.711931 380.187792 
L 695.0904 375.821924 
L 695.847339 375.821924 
L 696.225808 380.187792 
L 696.604278 380.187792 
L 696.982747 375.821924 
L 697.361216 380.187792 
L 699.253563 380.187792 
L 699.632032 375.821924 
L 700.010502 380.187792 
L 700.388971 375.821924 
L 700.767441 380.187792 
L 701.902849 380.187792 
L 702.281318 375.821924 
L 702.659787 380.187792 
L 706.444481 380.187792 
L 706.82295 375.821924 
L 707.201419 380.187792 
L 707.579889 375.821924 
L 707.958358 380.187792 
L 709.093766 380.187792 
L 709.093766 380.187792 
" clip-path="url(#p5d661c22c9)" style="fill: none; stroke: #800080; stroke-width: 1.5; stroke-linecap: square"/>
   </g>
   <g id="PathCollection_1">
    <defs>
     <path id="mca18065072" d="M -3 3 
L 3 3 
L 3 -3 
L -3 -3 
z
" style="stroke: #ffc0cb; stroke-width: 0.9"/>
    </defs>
    <g clip-path="url(#p5d661c22c9)">
     <use xlink:href="#mca18065072" x="39.58149" y="397.651267" style="fill: #ffc0cb; stroke: #ffc0cb; stroke-width: 0.9"/>
     <use xlink:href="#mca18065072" x="66.074344" y="310.333894" style="fill: #ffc0cb; stroke: #ffc0cb; stroke-width: 0.9"/>
     <use xlink:href="#mca18065072" x="92.567199" y="240.479995" style="fill: #ffc0cb; stroke: #ffc0cb; stroke-width: 0.9"/>
     <use xlink:href="#mca18065072" x="119.060053" y="188.089571" style="fill: #ffc0cb; stroke: #ffc0cb; stroke-width: 0.9"/>
     <use xlink:href="#mca18065072" x="145.552907" y="153.162621" style="fill: #ffc0cb; stroke: #ffc0cb; stroke-width: 0.9"/>
     <use xlink:href="#mca18065072" x="172.045762" y="118.235672" style="fill: #ffc0cb; stroke: #ffc0cb; stroke-width: 0.9"/>
     <use xlink:href="#mca18065072" x="198.538616" y="100.772197" style="fill: #ffc0cb; stroke: #ffc0cb; stroke-width: 0.9"/>
     <use xlink:href="#mca18065072" x="225.03147" y="78.942854" style="fill: #ffc0cb; stroke: #ffc0cb; stroke-width: 0.9"/>
     <use xlink:href="#mca18065072" x="251.524325" y="65.845248" style="fill: #ffc0cb; stroke: #ffc0cb; stroke-width: 0.9"/>
     <use xlink:href="#mca18065072" x="278.017179" y="61.479379" style="fill: #ffc0cb; stroke: #ffc0cb; stroke-width: 0.9"/>
     <use xlink:href="#mca18065072" x="304.510033" y="48.381773" style="fill: #ffc0cb; stroke: #ffc0cb; stroke-width: 0.9"/>
     <use xlink:href="#mca18065072" x="331.002888" y="44.015904" style="fill: #ffc0cb; stroke: #ffc0cb; stroke-width: 0.9"/>
     <use xlink:href="#mca18065072" x="357.495742" y="39.650036" style="fill: #ffc0cb; stroke: #ffc0cb; stroke-width: 0.9"/>
     <use xlink:href="#mca18065072" x="383.988596" y="30.918298" style="fill: #ffc0cb; stroke: #ffc0cb; stroke-width: 0.9"/>
     <use xlink:href="#mca18065072" x="410.481451" y="100.772197" style="fill: #ffc0cb; stroke: #ffc0cb; stroke-width: 0.9"/>
     <use xlink:href="#mca18065072" x="436.974305" y="166.260227" style="fill: #ffc0cb; stroke: #ffc0cb; stroke-width: 0.9"/>
     <use xlink:href="#mca18065072" x="463.467159" y="223.01652" style="fill: #ffc0cb; stroke: #ffc0cb; stroke-width: 0.9"/>
     <use xlink:href="#mca18065072" x="489.960014" y="257.943469" style="fill: #ffc0cb; stroke: #ffc0cb; stroke-width: 0.9"/>
     <use xlink:href="#mca18065072" x="516.452868" y="292.870419" style="fill: #ffc0cb; stroke: #ffc0cb; stroke-width: 0.9"/>
     <use xlink:href="#mca18065072" x="542.945723" y="314.699762" style="fill: #ffc0cb; stroke: #ffc0cb; stroke-width: 0.9"/>
     <use xlink:href="#mca18065072" x="569.438577" y="332.163237" style="fill: #ffc0cb; stroke: #ffc0cb; stroke-width: 0.9"/>
     <use xlink:href="#mca18065072" x="595.931431" y="345.260843" style="fill: #ffc0cb; stroke: #ffc0cb; stroke-width: 0.9"/>
     <use xlink:href="#mca18065072" x="622.424286" y="362.724318" style="fill: #ffc0cb; stroke: #ffc0cb; stroke-width: 0.9"/>
     <use xlink:href="#mca18065072" x="648.91714" y="362.724318" style="fill: #ffc0cb; stroke: #ffc0cb; stroke-width: 0.9"/>
     <use xlink:href="#mca18065072" x="675.409994" y="375.821924" style="fill: #ffc0cb; stroke: #ffc0cb; stroke-width: 0.9"/>
     <use xlink:href="#mca18065072" x="701.902849" y="380.187792" style="fill: #ffc0cb; stroke: #ffc0cb; stroke-width: 0.9"/>
    </g>
   </g>
   <g id="patch_3">
    <path d="M 39.58149 398.64351 
L 39.58149 18.118365 
" style="fill: none; stroke: #000000; stroke-width: 0.8; stroke-linejoin: miter; stroke-linecap: square"/>
   </g>
   <g id="patch_4">
    <path d="M 716.99976 398.64351 
L 716.99976 18.118365 
" style="fill: none; stroke: #000000; stroke-width: 0.8; stroke-linejoin: miter; stroke-linecap: square"/>
   </g>
   <g id="patch_5">
    <path d="M 39.58149 398.64351 
L 716.99976 398.64351 
" style="fill: none; stroke: #000000; stroke-width: 0.8; stroke-linejoin: miter; stroke-linecap: square"/>
   </g>
   <g id="patch_6">
    <path d="M 39.58149 18.118365 
L 716.99976 18.118365 
" style="fill: none; stroke: #000000; stroke-width: 0.8; stroke-linejoin: miter; stroke-linecap: square"/>
   </g>
   <g id="text_15">
    <!-- Время заряда: 34.15c, -->
    <g transform="translate(555.856323 201.881997) scale(0.07 -0.07)">
     <defs>
      <path id="DejaVuSans-437" d="M 2206 1888 
Q 2594 1813 2809 1584 
Q 3025 1356 3025 1019 
Q 3025 478 2622 193 
Q 2219 -91 1475 -91 
Q 1225 -91 961 -47 
Q 697 -3 416 84 
L 416 619 
Q 638 503 903 445 
Q 1169 388 1459 388 
Q 1931 388 2195 563 
Q 2459 738 2459 1019 
Q 2459 1294 2225 1461 
Q 1991 1628 1563 1628 
L 1100 1628 
L 1100 2103 
L 1584 2103 
Q 1947 2103 2158 2242 
Q 2369 2381 2369 2600 
Q 2369 2800 2151 2944 
Q 1934 3088 1563 3088 
Q 1341 3088 1089 3047 
Q 838 3006 534 2916 
L 534 3438 
Q 841 3513 1106 3550 
Q 1372 3588 1609 3588 
Q 2222 3588 2576 3342 
Q 2931 3097 2931 2656 
Q 2931 2366 2743 2164 
Q 2556 1963 2206 1888 
z
" transform="scale(0.015625)"/>
      <path id="DejaVuSans-434" d="M 1384 459 
L 3053 459 
L 3053 3041 
L 1844 3041 
L 1844 2603 
Q 1844 1316 1475 628 
L 1384 459 
z
M 550 459 
Q 834 584 959 850 
Q 1266 1509 1266 2838 
L 1266 3500 
L 3631 3500 
L 3631 459 
L 4091 459 
L 4091 -884 
L 3631 -884 
L 3631 0 
L 794 0 
L 794 -884 
L 334 -884 
L 334 459 
L 550 459 
z
" transform="scale(0.015625)"/>
      <path id="DejaVuSans-3a" d="M 750 794 
L 1409 794 
L 1409 0 
L 750 0 
L 750 794 
z
M 750 3309 
L 1409 3309 
L 1409 2516 
L 750 2516 
L 750 3309 
z
" transform="scale(0.015625)"/>
     </defs>
     <use xlink:href="#DejaVuSans-412"/>
     <use xlink:href="#DejaVuSans-440" x="68.603516"/>
     <use xlink:href="#DejaVuSans-435" x="132.080078"/>
     <use xlink:href="#DejaVuSans-43c" x="193.603516"/>
     <use xlink:href="#DejaVuSans-44f" x="269.042969"/>
     <use xlink:href="#DejaVuSans-20" x="329.199219"/>
     <use xlink:href="#DejaVuSans-437" x="360.986328"/>
     <use xlink:href="#DejaVuSans-430" x="414.160156"/>
     <use xlink:href="#DejaVuSans-440" x="475.439453"/>
     <use xlink:href="#DejaVuSans-44f" x="538.916016"/>
     <use xlink:href="#DejaVuSans-434" x="599.072266"/>
     <use xlink:href="#DejaVuSans-430" x="668.212891"/>
     <use xlink:href="#DejaVuSans-3a" x="729.492188"/>
     <use xlink:href="#DejaVuSans-20" x="763.183594"/>
     <use xlink:href="#DejaVuSans-33" x="794.970703"/>
     <use xlink:href="#DejaVuSans-34" x="858.59375"/>
     <use xlink:href="#DejaVuSans-2e" x="922.216797"/>
     <use xlink:href="#DejaVuSans-31" x="954.003906"/>
     <use xlink:href="#DejaVuSans-35" x="1017.626953"/>
     <use xlink:href="#DejaVuSans-63" x="1081.25"/>
     <use xlink:href="#DejaVuSans-2c" x="1136.230469"/>
    </g>
    <!-- Время разряда 31.12 c -->
    <g transform="translate(555.856323 209.720465) scale(0.07 -0.07)">
     <use xlink:href="#DejaVuSans-412"/>
     <use xlink:href="#DejaVuSans-440" x="68.603516"/>
     <use xlink:href="#DejaVuSans-435" x="132.080078"/>
     <use xlink:href="#DejaVuSans-43c" x="193.603516"/>
     <use xlink:href="#DejaVuSans-44f" x="269.042969"/>
     <use xlink:href="#DejaVuSans-20" x="329.199219"/>
     <use xlink:href="#DejaVuSans-440" x="360.986328"/>
     <use xlink:href="#DejaVuSans-430" x="424.462891"/>
     <use xlink:href="#DejaVuSans-437" x="485.742188"/>
     <use xlink:href="#DejaVuSans-440" x="538.916016"/>
     <use xlink:href="#DejaVuSans-44f" x="602.392578"/>
     <use xlink:href="#DejaVuSans-434" x="662.548828"/>
     <use xlink:href="#DejaVuSans-430" x="731.689453"/>
     <use xlink:href="#DejaVuSans-20" x="792.96875"/>
     <use xlink:href="#DejaVuSans-33" x="824.755859"/>
     <use xlink:href="#DejaVuSans-31" x="888.378906"/>
     <use xlink:href="#DejaVuSans-2e" x="952.001953"/>
     <use xlink:href="#DejaVuSans-31" x="983.789062"/>
     <use xlink:href="#DejaVuSans-32" x="1047.412109"/>
     <use xlink:href="#DejaVuSans-20" x="1111.035156"/>
     <use xlink:href="#DejaVuSans-63" x="1142.822266"/>
    </g>
   </g>
   <g id="text_16">
    <!-- Процесс заряда и разряда конденсатора в RC-цепочке -->
    <g transform="translate(203.954062 12.118365) scale(0.12 -0.12)">
     <defs>
      <path id="DejaVuSans-41f" d="M 4184 4666 
L 4184 0 
L 3553 0 
L 3553 4134 
L 1259 4134 
L 1259 0 
L 628 0 
L 628 4666 
L 4184 4666 
z
" transform="scale(0.015625)"/>
      <path id="DejaVuSans-43e" d="M 1959 3097 
Q 1497 3097 1228 2736 
Q 959 2375 959 1747 
Q 959 1119 1226 758 
Q 1494 397 1959 397 
Q 2419 397 2687 759 
Q 2956 1122 2956 1747 
Q 2956 2369 2687 2733 
Q 2419 3097 1959 3097 
z
M 1959 3584 
Q 2709 3584 3137 3096 
Q 3566 2609 3566 1747 
Q 3566 888 3137 398 
Q 2709 -91 1959 -91 
Q 1206 -91 779 398 
Q 353 888 353 1747 
Q 353 2609 779 3096 
Q 1206 3584 1959 3584 
z
" transform="scale(0.015625)"/>
      <path id="DejaVuSans-446" d="M 3603 0 
L 581 0 
L 581 3500 
L 1159 3500 
L 1159 459 
L 3025 459 
L 3025 3500 
L 3603 3500 
L 3603 459 
L 4063 459 
L 4063 -884 
L 3603 -884 
L 3603 0 
z
" transform="scale(0.015625)"/>
      <path id="DejaVuSans-441" d="M 3122 3366 
L 3122 2828 
Q 2878 2963 2633 3030 
Q 2388 3097 2138 3097 
Q 1578 3097 1268 2742 
Q 959 2388 959 1747 
Q 959 1106 1268 751 
Q 1578 397 2138 397 
Q 2388 397 2633 464 
Q 2878 531 3122 666 
L 3122 134 
Q 2881 22 2623 -34 
Q 2366 -91 2075 -91 
Q 1284 -91 818 406 
Q 353 903 353 1747 
Q 353 2603 823 3093 
Q 1294 3584 2113 3584 
Q 2378 3584 2631 3529 
Q 2884 3475 3122 3366 
z
" transform="scale(0.015625)"/>
      <path id="DejaVuSans-43a" d="M 581 3500 
L 1153 3500 
L 1153 1856 
L 2775 3500 
L 3481 3500 
L 2144 2147 
L 3653 0 
L 3009 0 
L 1769 1766 
L 1153 1141 
L 1153 0 
L 581 0 
L 581 3500 
z
" transform="scale(0.015625)"/>
      <path id="DejaVuSans-442" d="M 188 3500 
L 3541 3500 
L 3541 3041 
L 2147 3041 
L 2147 0 
L 1581 0 
L 1581 3041 
L 188 3041 
L 188 3500 
z
" transform="scale(0.015625)"/>
      <path id="DejaVuSans-432" d="M 1156 1613 
L 1156 459 
L 1975 459 
Q 2369 459 2575 607 
Q 2781 756 2781 1038 
Q 2781 1319 2575 1466 
Q 2369 1613 1975 1613 
L 1156 1613 
z
M 1156 3041 
L 1156 2072 
L 1913 2072 
Q 2238 2072 2444 2201 
Q 2650 2331 2650 2563 
Q 2650 2794 2444 2917 
Q 2238 3041 1913 3041 
L 1156 3041 
z
M 581 3500 
L 1950 3500 
Q 2566 3500 2897 3275 
Q 3228 3050 3228 2634 
Q 3228 2313 3059 2123 
Q 2891 1934 2559 1888 
Q 2956 1813 3175 1575 
Q 3394 1338 3394 981 
Q 3394 513 3033 256 
Q 2672 0 2003 0 
L 581 0 
L 581 3500 
z
" transform="scale(0.015625)"/>
      <path id="DejaVuSans-52" d="M 2841 2188 
Q 3044 2119 3236 1894 
Q 3428 1669 3622 1275 
L 4263 0 
L 3584 0 
L 2988 1197 
Q 2756 1666 2539 1819 
Q 2322 1972 1947 1972 
L 1259 1972 
L 1259 0 
L 628 0 
L 628 4666 
L 2053 4666 
Q 2853 4666 3247 4331 
Q 3641 3997 3641 3322 
Q 3641 2881 3436 2590 
Q 3231 2300 2841 2188 
z
M 1259 4147 
L 1259 2491 
L 2053 2491 
Q 2509 2491 2742 2702 
Q 2975 2913 2975 3322 
Q 2975 3731 2742 3939 
Q 2509 4147 2053 4147 
L 1259 4147 
z
" transform="scale(0.015625)"/>
      <path id="DejaVuSans-43" d="M 4122 4306 
L 4122 3641 
Q 3803 3938 3442 4084 
Q 3081 4231 2675 4231 
Q 1875 4231 1450 3742 
Q 1025 3253 1025 2328 
Q 1025 1406 1450 917 
Q 1875 428 2675 428 
Q 3081 428 3442 575 
Q 3803 722 4122 1019 
L 4122 359 
Q 3791 134 3420 21 
Q 3050 -91 2638 -91 
Q 1578 -91 968 557 
Q 359 1206 359 2328 
Q 359 3453 968 4101 
Q 1578 4750 2638 4750 
Q 3056 4750 3426 4639 
Q 3797 4528 4122 4306 
z
" transform="scale(0.015625)"/>
      <path id="DejaVuSans-2d" d="M 313 2009 
L 1997 2009 
L 1997 1497 
L 313 1497 
L 313 2009 
z
" transform="scale(0.015625)"/>
      <path id="DejaVuSans-447" d="M 2625 0 
L 2625 1472 
L 1553 1472 
Q 1075 1472 756 1769 
Q 469 2038 469 2613 
L 469 3500 
L 1044 3500 
L 1044 2666 
Q 1044 2300 1206 2116 
Q 1372 1931 1697 1931 
L 2625 1931 
L 2625 3500 
L 3200 3500 
L 3200 0 
L 2625 0 
z
" transform="scale(0.015625)"/>
     </defs>
     <use xlink:href="#DejaVuSans-41f"/>
     <use xlink:href="#DejaVuSans-440" x="75.195312"/>
     <use xlink:href="#DejaVuSans-43e" x="138.671875"/>
     <use xlink:href="#DejaVuSans-446" x="199.853516"/>
     <use xlink:href="#DejaVuSans-435" x="267.919922"/>
     <use xlink:href="#DejaVuSans-441" x="329.443359"/>
     <use xlink:href="#DejaVuSans-441" x="384.423828"/>
     <use xlink:href="#DejaVuSans-20" x="439.404297"/>
     <use xlink:href="#DejaVuSans-437" x="471.191406"/>
     <use xlink:href="#DejaVuSans-430" x="524.365234"/>
     <use xlink:href="#DejaVuSans-440" x="585.644531"/>
     <use xlink:href="#DejaVuSans-44f" x="649.121094"/>
     <use xlink:href="#DejaVuSans-434" x="709.277344"/>
     <use xlink:href="#DejaVuSans-430" x="778.417969"/>
     <use xlink:href="#DejaVuSans-20" x="839.697266"/>
     <use xlink:href="#DejaVuSans-438" x="871.484375"/>
     <use xlink:href="#DejaVuSans-20" x="936.474609"/>
     <use xlink:href="#DejaVuSans-440" x="968.261719"/>
     <use xlink:href="#DejaVuSans-430" x="1031.738281"/>
     <use xlink:href="#DejaVuSans-437" x="1093.017578"/>
     <use xlink:href="#DejaVuSans-440" x="1146.191406"/>
     <use xlink:href="#DejaVuSans-44f" x="1209.667969"/>
     <use xlink:href="#DejaVuSans-434" x="1269.824219"/>
     <use xlink:href="#DejaVuSans-430" x="1338.964844"/>
     <use xlink:href="#DejaVuSans-20" x="1400.244141"/>
     <use xlink:href="#DejaVuSans-43a" x="1432.03125"/>
     <use xlink:href="#DejaVuSans-43e" x="1492.431641"/>
     <use xlink:href="#DejaVuSans-43d" x="1553.613281"/>
     <use xlink:href="#DejaVuSans-434" x="1618.994141"/>
     <use xlink:href="#DejaVuSans-435" x="1688.134766"/>
     <use xlink:href="#DejaVuSans-43d" x="1749.658203"/>
     <use xlink:href="#DejaVuSans-441" x="1815.039062"/>
     <use xlink:href="#DejaVuSans-430" x="1870.019531"/>
     <use xlink:href="#DejaVuSans-442" x="1931.298828"/>
     <use xlink:href="#DejaVuSans-43e" x="1989.550781"/>
     <use xlink:href="#DejaVuSans-440" x="2050.732422"/>
     <use xlink:href="#DejaVuSans-430" x="2114.208984"/>
     <use xlink:href="#DejaVuSans-20" x="2175.488281"/>
     <use xlink:href="#DejaVuSans-432" x="2207.275391"/>
     <use xlink:href="#DejaVuSans-20" x="2266.210938"/>
     <use xlink:href="#DejaVuSans-52" x="2297.998047"/>
     <use xlink:href="#DejaVuSans-43" x="2362.480469"/>
     <use xlink:href="#DejaVuSans-2d" x="2432.304688"/>
     <use xlink:href="#DejaVuSans-446" x="2468.388672"/>
     <use xlink:href="#DejaVuSans-435" x="2536.455078"/>
     <use xlink:href="#DejaVuSans-43f" x="2597.978516"/>
     <use xlink:href="#DejaVuSans-43e" x="2663.359375"/>
     <use xlink:href="#DejaVuSans-447" x="2724.541016"/>
     <use xlink:href="#DejaVuSans-43a" x="2783.623047"/>
     <use xlink:href="#DejaVuSans-435" x="2844.023438"/>
    </g>
   </g>
   <g id="legend_1">
    <g id="patch_7">
     <path d="M 658.957572 40.79649 
L 709.99976 40.79649 
Q 711.99976 40.79649 711.99976 38.79649 
L 711.99976 25.118365 
Q 711.99976 23.118365 709.99976 23.118365 
L 658.957572 23.118365 
Q 656.957572 23.118365 656.957572 25.118365 
L 656.957572 38.79649 
Q 656.957572 40.79649 658.957572 40.79649 
z
" style="fill: #ffffff; opacity: 0.8; stroke: #cccccc; stroke-linejoin: miter"/>
    </g>
    <g id="line2d_116">
     <path d="M 660.957572 31.216803 
L 670.957572 31.216803 
L 680.957572 31.216803 
" style="fill: none; stroke: #800080; stroke-width: 1.5; stroke-linecap: square"/>
    </g>
    <g id="text_17">
     <!-- U(t) -->
     <g transform="translate(688.957572 34.716803) scale(0.1 -0.1)">
      <defs>
       <path id="DejaVuSans-55" d="M 556 4666 
L 1191 4666 
L 1191 1831 
Q 1191 1081 1462 751 
Q 1734 422 2344 422 
Q 2950 422 3222 751 
Q 3494 1081 3494 1831 
L 3494 4666 
L 4128 4666 
L 4128 1753 
Q 4128 841 3676 375 
Q 3225 -91 2344 -91 
Q 1459 -91 1007 375 
Q 556 841 556 1753 
L 556 4666 
z
" transform="scale(0.015625)"/>
       <path id="DejaVuSans-28" d="M 1984 4856 
Q 1566 4138 1362 3434 
Q 1159 2731 1159 2009 
Q 1159 1288 1364 580 
Q 1569 -128 1984 -844 
L 1484 -844 
Q 1016 -109 783 600 
Q 550 1309 550 2009 
Q 550 2706 781 3412 
Q 1013 4119 1484 4856 
L 1984 4856 
z
" transform="scale(0.015625)"/>
       <path id="DejaVuSans-74" d="M 1172 4494 
L 1172 3500 
L 2356 3500 
L 2356 3053 
L 1172 3053 
L 1172 1153 
Q 1172 725 1289 603 
Q 1406 481 1766 481 
L 2356 481 
L 2356 0 
L 1766 0 
Q 1100 0 847 248 
Q 594 497 594 1153 
L 594 3053 
L 172 3053 
L 172 3500 
L 594 3500 
L 594 4494 
L 1172 4494 
z
" transform="scale(0.015625)"/>
       <path id="DejaVuSans-29" d="M 513 4856 
L 1013 4856 
Q 1481 4119 1714 3412 
Q 1947 2706 1947 2009 
Q 1947 1309 1714 600 
Q 1481 -109 1013 -844 
L 513 -844 
Q 928 -128 1133 580 
Q 1338 1288 1338 2009 
Q 1338 2731 1133 3434 
Q 928 4138 513 4856 
z
" transform="scale(0.015625)"/>
      </defs>
      <use xlink:href="#DejaVuSans-55"/>
      <use xlink:href="#DejaVuSans-28" x="73.193359"/>
      <use xlink:href="#DejaVuSans-74" x="112.207031"/>
      <use xlink:href="#DejaVuSans-29" x="151.416016"/>
     </g>
    </g>
   </g>
  </g>
 </g>
 <defs>
  <clipPath id="p5d661c22c9">
   <rect x="39.58149" y="18.118365" width="677.41827" height="380.525145"/>
  </clipPath>
 </defs>
</svg>
